 <svg version="1.0" xmlns="http://www.w3.org/2000/svg"  width="1536.000000pt" height="1536.000000pt" viewBox="0 0 1536.000000 1536.000000"  preserveAspectRatio="xMidYMid meet">  <g transform="translate(0.000000,1536.000000) scale(0.100000,-0.100000)" fill="#ffffff" stroke="none"> <path d="M3872 13712 c-36 -3 -46 -8 -62 -35 -20 -31 -20 -71 -20 -2283 0 -2044 -1 -2252 -16 -2258 -9 -3 -669 -6 -1468 -6 l-1453 0 -21 -23 c-23 -24 -30 -71 -12 -82 5 -3 10 -16 10 -28 0 -36 75 -135 191 -253 69 -70 109 -119 109 -132 0 -31 37 -87 65 -100 14 -6 25 -16 25 -22 0 -5 6 -10 14 -10 7 0 38 -20 68 -45 30 -25 60 -45 65 -45 6 0 17 -7 24 -16 7 -9 36 -31 64 -48 27 -18 63 -52 79 -77 37 -54 226 -249 243 -249 7 0 35 -19 63 -42 85 -73 117 -98 125 -98 18 0 133 -61 150 -80 10 -11 25 -20 34 -20 22 0 99 -83 117 -125 8 -19 14 -53 14 -76 0 -52 26 -96 103 -176 l61 -62 8 -88 c21 -216 23 -226 54 -273 17 -25 34 -58 38 -75 14 -59 66 -151 108 -191 24 -23 77 -58 118 -78 55 -26 95 -55 144 -106 38 -39 75 -70 81 -70 7 0 18 -7 25 -15 7 -8 20 -15 30 -15 10 0 23 -6 29 -14 6 -8 26 -16 44 -19 65 -11 93 -21 122 -42 17 -12 65 -39 107 -60 43 -21 85 -46 94 -56 10 -11 24 -19 33 -19 9 0 27 -12 40 -26 27 -28 82 -54 116 -54 13 0 46 -11 73 -25 99 -50 170 -28 228 70 27 48 83 100 132 127 30 16 32 20 32 75 1 35 6 66 15 77 8 11 15 29 15 40 0 12 7 30 15 40 8 11 15 34 15 52 0 29 45 128 75 164 6 8 15 22 18 31 5 16 47 29 94 29 14 0 39 7 56 15 18 8 57 16 87 17 49 3 55 6 60 28 4 19 13 26 36 28 19 2 36 -3 44 -12 9 -12 32 -16 85 -16 56 0 74 -4 79 -15 3 -8 18 -15 33 -15 15 -1 39 -7 53 -15 32 -18 128 -18 160 0 35 20 98 18 140 -5 19 -10 49 -25 65 -33 33 -16 95 -81 95 -100 0 -7 27 -39 59 -71 50 -50 72 -63 141 -86 70 -25 89 -36 138 -87 41 -42 60 -72 69 -104 6 -25 26 -62 42 -83 17 -21 31 -43 31 -49 0 -5 18 -36 40 -69 29 -44 40 -71 40 -98 0 -24 5 -40 15 -44 8 -3 15 -13 15 -23 0 -9 13 -31 29 -48 16 -16 50 -70 75 -120 40 -78 46 -97 46 -151 0 -35 5 -66 11 -69 5 -4 14 -18 19 -31 5 -13 20 -28 33 -33 17 -7 36 -35 63 -90 23 -47 47 -83 58 -87 23 -8 60 -46 91 -94 12 -19 32 -44 44 -54 11 -11 21 -27 21 -36 0 -10 7 -23 15 -30 8 -7 15 -24 15 -37 0 -18 27 -53 95 -123 52 -54 95 -103 95 -110 0 -17 62 -70 82 -70 10 0 36 -9 58 -21 34 -18 40 -26 40 -53 0 -17 7 -44 15 -60 8 -15 15 -53 15 -83 0 -30 5 -64 12 -76 7 -13 11 -59 10 -115 -2 -66 2 -101 13 -122 8 -16 15 -42 15 -57 0 -31 43 -113 66 -126 8 -4 14 -15 14 -24 0 -9 18 -35 40 -59 34 -38 40 -50 40 -89 0 -60 54 -169 109 -218 23 -20 46 -37 52 -37 6 0 24 -11 41 -25 16 -14 39 -25 51 -25 12 0 31 -7 41 -15 11 -8 41 -15 68 -15 41 0 56 -6 105 -43 72 -54 141 -90 160 -83 16 7 74 -19 127 -56 21 -16 46 -28 56 -28 9 0 45 -11 80 -25 43 -17 84 -25 123 -25 33 0 77 -5 98 -12 26 -7 46 -8 61 -1 29 13 121 -18 170 -57 20 -17 49 -30 64 -30 18 0 39 -12 61 -35 50 -52 81 -65 132 -55 23 4 48 13 54 19 6 6 27 11 48 11 48 0 82 28 98 82 8 24 20 60 27 81 20 52 18 235 -1 261 -8 11 -15 32 -15 47 0 15 -4 31 -10 34 -5 3 -10 22 -10 42 0 19 -12 58 -26 87 -19 37 -29 76 -35 141 -10 98 -25 231 -30 255 -2 8 1 32 5 52 6 28 4 42 -8 60 -21 30 -22 146 -1 174 8 10 15 30 15 44 0 14 7 36 15 50 8 14 14 39 15 57 0 17 4 35 10 38 5 3 10 17 10 31 0 27 60 147 91 180 10 11 19 27 19 36 0 9 7 21 15 28 8 7 15 18 15 25 0 7 7 19 17 26 9 8 26 36 39 63 25 53 145 183 205 221 42 27 86 72 102 106 8 14 24 26 42 29 60 11 129 52 194 115 37 36 73 65 80 65 6 0 38 17 69 37 88 57 101 63 147 63 29 0 54 8 79 25 20 14 40 25 44 25 4 0 22 14 40 30 18 17 37 30 41 30 4 0 25 13 47 30 21 16 47 30 58 30 10 0 31 11 48 25 16 14 35 25 43 25 7 0 18 7 25 15 7 9 36 27 64 40 28 14 77 49 110 80 32 30 64 55 71 55 7 0 19 7 26 16 7 9 21 19 30 23 10 3 55 43 102 87 46 45 97 89 113 97 16 9 54 41 84 72 30 31 65 61 78 66 12 5 26 19 31 32 9 23 84 97 100 97 4 0 41 18 81 40 42 23 86 40 104 40 18 0 41 7 52 15 10 8 33 15 49 15 30 1 130 31 142 44 3 3 30 6 59 6 42 0 59 5 83 26 28 23 31 32 31 80 0 30 -4 54 -10 54 -22 0 -8 35 30 76 22 24 40 50 40 58 0 7 7 16 15 20 8 3 15 14 15 24 0 11 11 40 25 66 23 43 25 58 25 167 0 116 -1 121 -26 146 l-26 26 26 51 c28 56 32 86 15 115 -12 18 -2 44 87 224 23 46 24 59 24 238 0 181 -2 197 -32 249 -4 8 -11 22 -14 30 -3 8 -10 23 -16 34 -5 10 -16 40 -24 66 -8 26 -25 59 -39 74 -14 15 -25 34 -25 42 0 20 -25 67 -44 83 -12 10 -16 33 -16 96 0 61 -4 86 -15 95 -8 7 -15 19 -15 26 0 8 -12 33 -28 56 -15 22 -31 48 -37 57 -5 9 -27 35 -47 58 l-38 43 0 766 0 766 -36 36 -35 35 -148 -6 c-120 -5 -152 -3 -167 8 -11 8 -35 15 -55 15 -21 0 -47 9 -62 20 -58 46 -130 90 -146 90 -9 0 -26 7 -37 15 -10 8 -37 15 -59 15 -36 0 -46 7 -139 101 -105 105 -143 129 -208 129 -34 0 -41 -4 -59 -35 -20 -33 -24 -35 -74 -35 -29 0 -69 7 -88 15 -58 24 -101 19 -140 -15 -35 -30 -70 -39 -82 -20 -8 13 -48 13 -78 -1 -19 -9 -31 -7 -55 5 -17 9 -39 16 -48 16 -26 0 -141 -80 -194 -134 -24 -25 -49 -46 -56 -46 -25 0 -72 33 -129 90 -33 33 -67 60 -76 60 -9 0 -20 7 -23 16 -5 14 -16 15 -64 10 -42 -5 -62 -3 -78 8 -11 8 -43 18 -70 21 -27 3 -53 10 -58 15 -16 16 -94 12 -121 -6 -14 -9 -25 -24 -25 -34 0 -22 -81 -110 -101 -110 -9 0 -24 8 -35 18 -36 34 -104 62 -148 62 -57 0 -101 23 -157 82 -25 26 -53 48 -64 48 -10 0 -32 5 -49 11 -43 15 -100 -10 -128 -56 -21 -38 -32 -42 -47 -22 -6 6 -26 30 -45 52 -19 23 -38 54 -42 70 -9 39 -20 52 -67 82 -36 23 -46 24 -140 20 -114 -5 -192 -18 -209 -35 -22 -22 -73 -12 -153 29 -79 40 -81 40 -160 34 -44 -4 -88 -12 -98 -17 -23 -12 -71 5 -107 37 -14 13 -35 28 -47 34 -13 7 -23 21 -23 33 0 45 -63 127 -122 158 -51 27 -176 28 -219 3 -29 -17 -29 -17 -58 12 -16 17 -45 41 -66 55 -21 14 -62 47 -91 74 l-54 49 0 956 c0 526 -4 961 -8 966 -4 6 -23 17 -42 26 -32 14 -159 16 -1285 15 -687 0 -1269 -2 -1293 -4z m1516 -773 c95 -59 140 -154 129 -274 -11 -113 -62 -185 -163 -230 -93 -41 -194 -30 -286 30 -60 40 -118 153 -118 230 0 71 51 178 103 218 74 55 116 68 213 62 58 -4 81 -10 122 -36z m-917 -1398 c48 -49 36 -113 -26 -129 -73 -20 -121 19 -111 88 11 70 85 92 137 41z m1337 -194 c31 -29 30 -86 -2 -116 -18 -17 -33 -22 -66 -19 -38 3 -45 7 -62 40 -18 33 -18 39 -4 72 24 58 84 68 134 23z m-828 -607 c11 -30 19 -63 20 -72 0 -9 12 -26 26 -37 22 -18 41 -21 111 -21 97 0 101 -7 32 -58 -99 -74 -103 -85 -69 -182 22 -63 25 -90 9 -90 -6 0 -40 20 -76 45 -35 25 -75 45 -89 45 -14 0 -48 -17 -77 -39 -29 -21 -62 -44 -74 -50 -30 -16 -30 -4 3 94 32 94 27 108 -49 159 -67 45 -85 64 -66 70 8 3 48 6 91 8 93 4 109 16 133 101 29 105 46 111 75 27z m1355 -115 c45 -44 30 -115 -28 -134 -86 -29 -149 59 -92 127 34 41 84 44 120 7z m3479 -176 c40 -47 30 -93 -26 -123 -33 -18 -36 -18 -69 -1 -42 22 -49 31 -49 73 0 77 94 111 144 51z m-1450 0 c39 -31 37 -88 -5 -123 -37 -31 -67 -33 -103 -5 -20 16 -26 29 -26 62 0 77 73 114 134 66z m2401 -4 c34 -33 34 -93 0 -118 -40 -29 -77 -31 -108 -7 -36 28 -39 98 -5 130 31 28 83 26 113 -5z m-3105 -250 c47 -8 96 -20 110 -26 143 -64 230 -129 346 -256 247 -271 497 -497 687 -619 40 -26 98 -64 130 -86 75 -50 133 -82 357 -195 221 -112 259 -118 280 -44 13 48 -3 75 -63 100 -29 12 -124 58 -212 101 -109 55 -149 79 -125 76 34 -5 97 -15 225 -37 62 -10 243 -6 470 10 121 8 165 14 305 41 30 6 78 15 105 20 61 10 179 42 258 69 136 47 488 237 573 310 34 29 259 109 271 97 5 -4 10 -167 13 -363 l5 -355 29 -20 c86 -63 146 -162 146 -241 0 -62 15 -106 70 -212 62 -118 77 -147 88 -175 6 -14 17 -41 26 -60 43 -100 46 -115 46 -210 0 -102 -6 -128 -50 -225 -15 -33 -31 -71 -35 -85 -4 -14 -12 -32 -19 -40 -28 -38 -36 -64 -36 -122 -1 -36 -7 -74 -15 -88 -24 -42 -19 -108 12 -149 23 -29 27 -44 25 -90 -3 -78 -54 -219 -92 -253 -33 -31 -30 -31 -221 -2 -53 8 -123 14 -156 14 -33 0 -73 4 -89 10 -16 5 -81 14 -144 20 -63 5 -176 17 -250 25 -74 8 -180 19 -235 25 -55 5 -127 14 -160 19 -88 15 -206 30 -324 41 -57 6 -135 17 -175 25 -39 8 -90 15 -113 15 -23 0 -53 4 -67 10 -14 5 -58 14 -98 20 -40 5 -104 17 -143 25 -64 13 -102 22 -235 55 -43 11 -152 45 -310 97 -145 48 -262 107 -368 185 -42 32 -89 65 -103 75 -31 20 -59 66 -59 98 0 28 23 85 57 139 48 74 115 210 135 271 36 109 9 227 -77 339 -45 60 -176 151 -301 212 -62 30 -115 54 -119 54 -3 0 -27 9 -53 21 -26 11 -56 24 -67 29 -39 17 -198 71 -234 79 -20 5 -63 17 -96 26 -33 9 -87 24 -120 32 -118 29 -171 42 -240 61 -122 34 -450 76 -705 92 -96 6 -197 13 -225 16 -66 7 -572 24 -855 30 -123 2 -228 8 -232 12 -5 5 18 15 49 24 32 9 103 28 158 43 55 16 118 32 140 37 40 8 222 63 260 78 50 20 218 70 233 70 10 0 26 6 37 14 11 7 38 16 59 20 55 10 220 84 291 131 33 22 67 43 75 47 17 9 106 67 287 189 124 83 301 188 373 221 70 33 222 78 288 87 99 13 109 12 202 -4z m1878 -388 c32 -30 31 -89 -4 -116 -34 -27 -88 -27 -114 -1 -28 28 -27 90 3 117 41 38 73 38 115 0z m-4243 -748 c33 -7 65 -18 72 -26 8 -11 41 -14 147 -14 142 0 161 4 152 27 -6 17 10 18 53 3 30 -11 43 -29 19 -29 -6 0 -19 -7 -28 -15 -10 -9 -40 -18 -69 -22 -28 -3 -51 -11 -51 -17 0 -24 31 -55 62 -62 42 -9 98 -35 98 -46 0 -15 -61 -8 -100 12 -22 11 -56 20 -76 20 -28 0 -35 3 -30 15 4 12 -1 14 -26 10 -37 -7 -88 3 -88 16 0 5 20 9 45 9 47 0 53 6 33 33 -8 11 -29 18 -56 19 -46 1 -78 -16 -49 -28 9 -3 14 -10 11 -15 -8 -14 -66 -11 -97 6 -15 8 -55 17 -90 21 -34 4 -66 10 -72 14 -5 4 -39 10 -74 14 -42 4 -68 12 -76 23 -9 12 -20 14 -45 9 -33 -6 -135 3 -126 11 2 3 55 7 118 10 62 2 114 5 115 7 8 7 179 4 228 -5z m178 -6 c-18 -2 -48 -2 -65 0 -18 2 -4 4 32 4 36 0 50 -2 33 -4z m497 -14 c56 -12 65 -36 11 -31 -29 3 -32 1 -29 -20 2 -18 -1 -22 -17 -20 -11 2 -31 15 -46 28 -34 33 -59 32 -59 -3 0 -27 0 -27 -19 -8 -35 35 -31 49 14 46 22 -1 51 2 65 8 14 5 26 10 27 10 1 1 25 -4 53 -10z m185 -8 c3 -5 -3 -11 -12 -13 -29 -6 -83 4 -77 13 7 12 81 12 89 0z m175 0 c22 -7 19 -8 -21 -15 -54 -8 -109 1 -87 15 15 10 73 10 108 0z m115 -21 c-10 -11 -21 -20 -24 -20 -3 0 -12 9 -19 20 -11 19 -10 20 24 20 36 0 37 0 19 -20z m235 -6 c68 -3 98 -9 106 -19 6 -8 24 -16 40 -16 25 -2 26 -2 6 -6 -13 -3 -26 -11 -29 -19 -6 -16 -93 -20 -93 -4 0 18 -52 33 -122 35 -78 3 -95 10 -77 32 9 10 22 13 43 8 17 -4 74 -9 126 -11z m305 -44 c-3 -5 -15 -10 -25 -10 -10 0 -20 -6 -23 -12 -7 -21 4 -38 24 -38 10 0 19 -5 19 -10 0 -11 49 -35 64 -31 5 1 12 -3 16 -10 9 -14 163 -13 168 1 2 6 15 10 28 10 14 0 27 7 30 15 4 8 10 13 15 10 15 -10 -2 -34 -34 -45 l-32 -12 32 -15 c17 -9 34 -24 36 -34 4 -14 13 -16 51 -12 41 4 46 2 46 -16 0 -17 -5 -20 -30 -17 -30 3 -31 3 -13 -17 10 -12 28 -30 41 -40 13 -11 21 -25 18 -32 -8 -22 16 -31 75 -29 54 1 58 -1 97 -40 27 -28 39 -49 38 -66 -3 -30 11 -51 29 -44 7 3 22 -6 33 -20 24 -32 29 -32 27 -3 -1 14 -8 21 -17 19 -13 -2 -15 7 -14 45 l1 48 -33 -2 c-25 -1 -32 2 -30 15 2 12 -3 16 -15 14 -13 -2 -17 2 -15 15 2 12 -2 17 -14 15 -13 -2 -16 4 -15 30 l2 33 -78 -1 c-66 -1 -77 1 -75 15 2 11 -3 15 -16 13 -18 -3 -18 -3 -1 15 27 26 132 28 160 3 24 -22 74 -19 91 5 15 20 88 32 98 16 5 -7 -4 -11 -26 -11 -43 0 -60 -12 -62 -41 -1 -31 -44 -39 -63 -13 -7 10 -16 14 -20 10 -5 -4 0 -14 11 -21 10 -8 15 -18 12 -23 -7 -11 18 -35 27 -25 4 3 13 1 20 -6 12 -9 14 -6 11 19 -4 31 16 50 53 50 11 0 29 9 41 20 23 21 42 26 42 10 0 -5 14 -16 30 -25 23 -12 35 -13 51 -4 27 14 34 6 17 -22 -31 -54 -40 -59 -100 -59 -32 0 -58 4 -58 10 0 6 7 10 15 10 9 0 32 7 53 16 33 13 35 16 19 25 -18 11 -89 4 -116 -11 -22 -12 -21 -52 0 -57 10 -3 19 -12 21 -21 2 -11 16 -16 53 -17 65 -3 115 19 115 50 0 25 21 38 45 28 24 -8 14 -36 -15 -43 -17 -4 -25 -13 -26 -28 -1 -22 10 -29 21 -13 12 20 52 5 84 -31 18 -21 36 -38 40 -38 4 0 6 18 5 40 -1 33 2 40 17 40 15 0 18 -7 17 -35 -1 -19 -5 -32 -9 -29 -4 2 -1 -9 7 -25 8 -16 28 -34 44 -41 17 -7 30 -16 30 -21 0 -16 -40 -9 -60 11 -12 12 -26 17 -37 13 -12 -5 -15 -2 -10 10 3 9 2 19 -3 22 -6 4 -10 -3 -10 -14 0 -11 5 -23 11 -26 6 -4 8 -14 5 -22 -4 -9 1 -17 14 -20 11 -3 20 -12 20 -19 0 -8 6 -14 13 -14 16 0 49 -33 46 -46 -5 -28 16 -71 42 -87 17 -9 29 -22 27 -29 -4 -18 23 -100 39 -119 19 -23 16 -50 -7 -56 -13 -3 -20 -14 -20 -29 0 -13 -4 -24 -9 -24 -12 0 -21 26 -21 62 0 30 0 31 20 13 18 -17 20 -17 20 -1 0 9 -9 26 -19 37 l-19 21 -7 -21 c-3 -12 -12 -21 -19 -21 -18 0 -35 21 -29 36 3 8 -5 18 -21 24 -31 11 -33 26 -6 48 11 10 21 28 22 41 2 19 -2 24 -21 26 -16 1 -25 -4 -29 -17 -6 -23 -44 -25 -40 -1 2 13 -5 17 -34 17 -34 1 -36 0 -22 -16 9 -9 22 -14 29 -12 23 9 30 -19 31 -133 2 -106 1 -113 -17 -113 -13 0 -19 6 -17 16 2 11 -5 18 -19 19 -29 2 -29 -3 3 -27 15 -12 23 -26 20 -35 -4 -9 2 -17 15 -20 17 -5 20 -11 15 -35 -4 -21 0 -33 14 -45 19 -17 19 -17 -1 -39 -12 -13 -18 -27 -14 -33 3 -7 -2 -11 -15 -11 -19 0 -21 5 -17 45 4 46 -7 71 -15 37 -6 -23 -50 -27 -46 -4 2 12 -3 16 -15 14 -12 -2 -17 2 -15 14 2 11 -4 18 -20 19 -20 1 -21 0 -7 -15 8 -9 15 -21 15 -26 0 -5 10 -14 23 -19 17 -8 22 -18 22 -45 0 -24 5 -36 17 -38 9 -2 18 -12 21 -23 6 -24 35 -15 47 15 8 19 9 19 9 -6 1 -19 -4 -28 -14 -28 -8 0 -16 -8 -16 -17 -1 -10 -2 -25 -3 -33 -1 -8 6 -24 16 -35 9 -11 15 -32 14 -48 -3 -25 2 -30 35 -44 22 -8 39 -21 39 -29 0 -20 -37 -17 -49 4 -9 15 -12 15 -21 2 -9 -13 -10 -12 -8 4 2 16 -4 19 -34 20 -21 1 -38 1 -38 1 0 -1 11 -12 26 -26 22 -21 24 -21 19 -4 -6 19 -6 19 8 3 8 -10 24 -18 37 -18 16 0 20 -4 16 -15 -4 -10 2 -19 17 -26 20 -9 20 -9 -6 -6 -19 3 -25 1 -18 -7 5 -6 8 -24 7 -39 -4 -30 7 -41 41 -42 12 0 25 -3 29 -7 14 -15 21 -8 16 17 -5 27 14 33 47 16 13 -7 17 -5 17 10 0 11 -6 18 -16 16 -11 -1 -15 7 -15 33 0 34 -2 35 -34 32 l-33 -4 17 26 c10 14 22 26 27 26 17 0 47 45 42 63 -4 11 0 17 10 17 9 0 16 -9 16 -20 0 -18 3 -19 20 -10 15 8 19 17 14 35 -8 31 6 32 37 3 14 -13 36 -31 49 -40 l25 -17 -38 0 c-30 -1 -40 -6 -49 -26 -10 -23 -16 -25 -55 -21 -51 5 -61 -4 -31 -30 12 -11 18 -13 14 -6 -4 6 -2 12 3 12 6 0 11 -4 11 -10 0 -5 5 -10 11 -10 5 0 7 5 4 10 -3 6 -1 10 4 10 6 0 14 0 19 0 4 0 7 -37 7 -83 1 -45 4 -87 8 -93 3 -6 24 -9 47 -7 31 3 40 1 40 -11 0 -9 6 -16 14 -16 7 0 16 -8 19 -19 3 -14 11 -17 30 -14 19 4 26 0 29 -13 3 -19 38 -26 49 -10 10 13 -2 46 -17 46 -9 0 -14 10 -13 28 0 25 1 25 9 6 4 -12 17 -23 27 -26 15 -4 18 1 19 28 0 28 -4 35 -27 43 -22 7 -27 7 -23 -4 4 -10 -7 -13 -45 -13 -43 -1 -51 2 -51 18 0 10 5 22 10 25 6 3 10 15 10 26 0 13 -7 19 -24 19 -17 0 -30 10 -43 32 -18 32 -18 32 5 55 13 14 25 23 27 21 2 -2 10 -25 18 -53 13 -45 17 -50 39 -47 18 2 32 -5 46 -22 12 -16 30 -26 45 -26 14 0 31 -9 39 -21 l14 -22 29 29 29 29 -37 9 c-26 7 -37 15 -37 28 0 24 5 23 74 -12 32 -17 67 -30 77 -30 10 0 23 -8 28 -19 7 -13 18 -17 36 -14 14 3 31 0 38 -6 8 -6 31 -15 53 -20 l39 -8 -43 -8 c-23 -4 -45 -12 -48 -16 -7 -13 -61 -11 -86 2 -23 12 -45 -2 -33 -21 5 -8 11 -7 23 2 13 11 14 11 9 -2 -4 -8 -10 -23 -13 -33 -5 -13 -14 -17 -29 -14 -18 3 -22 0 -17 -11 4 -11 1 -14 -11 -9 -9 3 -24 -1 -33 -11 -24 -23 -175 -27 -172 -4 2 9 -6 16 -19 17 -29 2 -29 -3 2 -27 18 -14 24 -27 21 -48 -2 -17 2 -33 8 -38 6 -4 63 -7 126 -6 108 1 117 0 141 -23 l26 -24 -2 23 c-1 15 -8 22 -19 20 -10 -2 -16 4 -16 17 0 33 71 26 106 -11 15 -15 25 -31 21 -34 -15 -16 15 -30 57 -28 42 2 49 -2 56 -31 3 -18 22 -35 32 -29 5 3 14 1 21 -5 10 -7 12 -1 12 27 -1 35 -3 37 -36 37 -26 0 -35 4 -37 20 -4 28 39 44 116 42 64 -1 68 -2 52 -27 -16 -26 7 -36 79 -34 62 3 69 1 74 -18 3 -11 10 -17 17 -13 6 4 17 2 24 -4 10 -9 12 -6 9 13 -4 17 0 25 16 29 16 4 19 10 14 24 -6 15 -5 16 9 5 11 -9 18 -10 23 -2 8 13 52 13 60 1 3 -6 20 -8 37 -6 18 2 39 -1 48 -8 13 -10 13 -10 3 3 -21 28 -1 40 60 37 36 -2 61 1 67 9 6 6 24 14 40 17 36 8 190 -3 190 -13 0 -4 -11 -12 -24 -20 -21 -11 -27 -10 -42 5 -12 12 -25 15 -43 10 -14 -4 -39 -8 -55 -9 -19 -2 -32 -10 -37 -24 -9 -25 5 -38 38 -34 20 3 22 -1 21 -32 -1 -33 -3 -35 -34 -34 -30 1 -32 4 -31 32 2 29 0 31 -31 29 -25 -1 -32 2 -30 14 2 10 -5 17 -20 18 -22 2 -22 2 4 -26 14 -15 23 -32 20 -37 -7 -11 18 -35 27 -25 10 10 38 -19 33 -33 -5 -13 10 -28 29 -29 23 -2 66 -26 61 -34 -7 -11 18 -33 27 -24 4 3 18 -4 32 -17 14 -13 25 -18 25 -12 0 20 -5 27 -17 24 -8 -2 -11 9 -10 30 2 33 2 33 -44 32 -43 -2 -46 0 -46 22 0 20 5 24 29 24 39 0 69 17 62 35 -5 11 4 14 43 14 78 -2 109 -48 32 -49 -40 0 -58 -32 -37 -65 4 -6 34 -10 67 -9 58 2 59 1 51 -21 -6 -15 -4 -27 3 -35 10 -10 8 -12 -7 -6 -16 5 -17 4 -6 -9 7 -9 10 -18 7 -22 -10 -10 13 -32 28 -27 7 3 22 -6 33 -20 24 -32 29 -32 27 -3 -1 14 -8 21 -17 19 -12 -2 -15 10 -14 60 0 54 -2 63 -17 60 -11 -2 -17 4 -17 18 0 25 37 28 42 3 2 -14 15 -17 71 -17 44 -1 67 3 67 10 0 7 7 25 15 40 24 46 17 64 -24 69 -9 1 -33 9 -54 19 -21 9 -43 14 -49 10 -8 -5 -9 -1 -5 10 5 12 -1 19 -19 26 -38 15 -55 12 -61 -10 -6 -24 -13 -25 -39 -6 -19 14 -19 15 1 21 11 4 28 11 37 16 35 18 148 5 148 -17 0 -20 48 -29 75 -14 29 15 151 1 148 -18 -2 -7 2 -12 7 -12 6 0 10 -6 10 -14 0 -17 -31 -28 -80 -30 -35 -1 -37 -6 -25 -37 4 -12 -1 -18 -19 -23 -14 -3 -30 -14 -35 -24 -8 -15 -6 -18 17 -18 18 1 27 -4 27 -14 0 -12 -17 -15 -90 -16 -110 -2 -102 -1 -100 -22 2 -29 13 -40 38 -35 17 4 26 0 29 -14 4 -17 18 -18 199 -17 115 1 199 -3 207 -9 9 -7 11 -5 6 8 -6 14 -4 16 7 9 8 -4 25 -7 39 -5 l25 3 -22 -22 c-13 -11 -23 -23 -23 -25 0 -3 18 -13 39 -22 l39 -17 -4 -55 c-2 -31 -3 -68 -4 -82 l0 -26 -95 0 c-77 1 -94 4 -92 16 1 10 -8 15 -35 15 -34 1 -36 0 -22 -16 9 -9 22 -14 30 -11 8 3 17 -2 20 -12 4 -9 17 -21 30 -26 35 -13 31 -39 -6 -39 -23 0 -30 4 -30 20 0 15 -7 20 -25 20 -19 0 -25 5 -23 16 2 11 -5 18 -19 19 -13 1 -23 -2 -23 -7 0 -4 5 -8 10 -8 6 0 10 -5 10 -11 0 -5 -4 -7 -10 -4 -5 3 -10 1 -10 -4 0 -6 10 -10 23 -8 16 1 22 -3 22 -18 0 -13 8 -21 23 -23 24 -4 25 -4 16 -26 -9 -22 -46 -21 -42 1 2 12 -4 18 -19 19 -13 1 -23 -3 -23 -7 0 -5 5 -9 10 -9 6 0 10 -5 10 -11 0 -5 -4 -7 -10 -4 -5 3 -10 1 -10 -4 0 -6 10 -10 22 -8 17 1 23 -3 24 -21 2 -36 14 -39 38 -9 12 15 30 27 39 27 11 0 22 12 28 30 6 17 17 30 25 30 8 0 23 5 34 12 10 7 22 10 25 7 9 -10 -6 -39 -20 -39 -15 0 -68 -50 -92 -87 -8 -12 -22 -23 -29 -23 -20 0 -17 -37 4 -49 13 -8 14 -10 2 -10 -19 0 -45 20 -52 39 -3 10 -19 15 -54 15 -39 0 -49 3 -48 16 1 12 -6 15 -27 13 -25 -3 -27 -1 -26 29 2 30 0 32 -31 30 -25 -1 -32 2 -30 14 2 10 -5 17 -19 18 -29 2 -29 -3 3 -27 14 -11 23 -26 20 -34 -6 -15 10 -28 34 -29 23 0 18 -30 -5 -30 -15 0 -21 -8 -23 -32 -3 -30 -6 -32 -38 -31 -32 1 -50 18 -19 18 8 0 15 7 15 15 0 25 -4 30 -18 27 -8 -2 -12 4 -10 15 2 13 -2 17 -15 15 -13 -2 -17 2 -15 14 2 14 -5 18 -34 18 -34 1 -36 0 -22 -16 9 -9 21 -14 28 -12 14 5 38 -18 35 -32 -2 -10 8 -40 22 -66 13 -26 12 -28 -25 -26 -27 1 -34 5 -33 20 1 11 7 16 14 14 12 -5 16 4 11 22 -2 4 -15 6 -30 5 -24 -1 -26 2 -25 29 2 26 -2 32 -20 33 -13 1 -23 -2 -23 -7 0 -4 5 -8 10 -8 6 0 10 -5 10 -11 0 -5 -4 -7 -10 -4 -21 13 -9 -6 23 -36 18 -18 25 -28 15 -25 -25 8 -22 -3 8 -26 14 -11 23 -26 20 -33 -5 -15 17 -38 27 -28 10 10 47 -28 47 -47 0 -12 -8 -17 -25 -17 -18 0 -25 4 -23 16 2 11 -3 15 -15 13 -12 -2 -17 2 -15 14 2 11 -4 18 -19 19 -26 2 -31 -10 -8 -19 26 -9 18 -43 -9 -43 -21 0 -24 4 -23 31 2 24 -2 30 -15 28 -13 -2 -16 5 -15 30 2 32 1 33 -31 30 -28 -3 -33 -1 -30 15 2 15 -3 18 -30 16 -25 -1 -32 2 -30 14 2 10 -5 17 -19 18 -13 1 -23 1 -23 0 0 -1 19 -23 42 -48 35 -39 44 -45 57 -34 12 10 14 9 9 -4 -7 -19 9 -39 26 -33 7 3 21 -4 31 -16 18 -20 18 -20 -14 -16 -30 3 -31 3 -15 -15 9 -10 22 -15 29 -13 15 6 49 -51 40 -66 -8 -12 -45 -13 -63 -1 -8 5 -12 20 -10 36 3 28 2 29 -52 30 -33 1 -71 -6 -95 -16 -50 -22 -96 -23 -93 -1 2 9 -5 16 -19 17 -29 2 -29 -3 3 -27 15 -12 23 -26 20 -35 -4 -9 1 -17 14 -20 17 -5 20 -12 17 -45 -2 -21 0 -41 5 -44 5 -3 6 -14 3 -25 -7 -21 2 -24 25 -9 13 9 13 11 0 20 -13 8 -12 10 3 10 9 0 18 8 18 18 1 9 4 1 8 -18 5 -29 11 -36 34 -38 36 -4 34 -18 -4 -26 -58 -11 -86 -7 -92 13 -3 14 -11 17 -31 14 -14 -3 -26 -12 -26 -19 0 -8 -9 -14 -20 -14 -27 0 -26 4 15 46 35 35 39 59 9 47 -11 -4 -15 0 -12 13 2 16 -3 19 -29 17 -29 -1 -31 1 -30 30 2 30 0 32 -31 30 -25 -1 -32 2 -30 14 2 10 -5 17 -19 18 -29 2 -29 -3 3 -27 14 -11 23 -26 20 -33 -6 -16 13 -35 28 -29 7 3 20 -4 30 -15 10 -11 23 -17 30 -15 16 6 40 -22 31 -36 -3 -5 -15 -10 -25 -10 -10 0 -22 -5 -26 -11 -4 -6 -19 -9 -35 -5 -21 4 -35 0 -48 -13 -38 -38 -111 -39 -111 -3 0 14 -8 17 -42 16 -24 -1 -56 -7 -72 -13 -27 -11 -28 -13 -12 -30 9 -9 16 -25 16 -33 0 -14 -4 -14 -25 -5 -14 7 -25 20 -25 30 0 11 -8 17 -25 17 -14 0 -25 4 -25 9 0 5 -13 11 -30 15 -23 4 -30 11 -30 29 0 20 4 23 35 19 19 -2 35 -8 35 -13 0 -13 38 -11 46 2 3 6 19 9 35 7 16 -3 30 1 33 8 2 6 -3 11 -12 10 -11 -1 -17 6 -17 19 0 18 -6 20 -48 17 -40 -2 -47 0 -47 16 0 16 -6 19 -30 16 -24 -3 -30 0 -28 13 2 10 -5 17 -19 18 -29 2 -29 -3 1 -26 29 -23 33 -69 5 -69 -12 0 -19 7 -19 19 0 15 -6 18 -30 15 -24 -3 -30 0 -28 13 2 10 -5 17 -19 18 -29 2 -29 -3 3 -27 15 -12 23 -26 20 -35 -4 -9 1 -17 13 -20 11 -3 22 -14 24 -25 3 -11 10 -17 16 -14 12 8 24 -11 16 -25 -5 -7 -13 -4 -25 8 -14 16 -29 19 -94 16 -67 -2 -76 0 -76 15 0 16 -10 18 -90 15 -83 -2 -90 0 -90 17 0 13 -5 17 -15 14 -12 -5 -15 2 -13 35 1 31 5 41 18 41 26 0 17 36 -18 73 -28 29 -37 32 -84 31 -73 -3 -72 -2 -60 -17 7 -8 32 -12 71 -11 65 2 80 -6 77 -46 -1 -21 -7 -26 -36 -28 -41 -4 -63 -20 -56 -39 3 -7 1 -13 -4 -13 -6 0 -10 6 -10 14 0 8 -7 17 -16 20 -14 6 -15 4 -4 -10 12 -13 11 -17 -1 -25 -8 -5 -25 -8 -39 -7 -33 4 -35 42 -3 46 16 2 21 9 19 28 -4 35 -16 43 -16 10 0 -15 -4 -25 -10 -21 -5 3 -8 19 -6 35 3 23 -1 30 -18 33 l-21 4 21 7 c17 6 20 14 17 46 -3 30 0 39 13 42 24 4 26 48 2 48 -12 0 -18 7 -18 24 0 19 4 22 25 18 14 -2 34 -15 44 -28 23 -30 28 -30 26 -1 -1 14 -8 21 -18 19 -12 -2 -15 5 -14 30 2 31 0 33 -31 31 -25 -1 -32 2 -30 14 2 10 -5 17 -20 18 l-23 2 26 -27 c30 -32 31 -40 5 -40 -12 0 -20 7 -20 18 0 16 -18 17 -240 16 -218 -1 -240 0 -240 16 0 13 -9 16 -46 14 -37 -2 -52 -9 -74 -32 -15 -16 -36 -33 -48 -36 -32 -10 -27 -26 8 -26 17 0 30 4 30 9 0 13 25 20 49 14 30 -8 26 -20 -9 -28 -16 -4 -30 -12 -30 -19 0 -6 -19 -17 -42 -24 -38 -10 -46 -9 -68 7 -14 10 -25 27 -25 37 0 11 -3 24 -7 30 -11 16 27 45 41 31 9 -9 17 -8 31 1 11 6 29 12 40 12 19 0 43 36 34 51 -6 11 -69 0 -79 -14 -10 -14 -45 -30 -45 -22 0 9 40 45 50 45 9 0 14 29 8 47 -2 5 -22 7 -46 7 -34 -2 -42 1 -40 15 2 11 -3 15 -15 13 -12 -2 -17 2 -15 14 4 25 -43 27 -50 2 -4 -17 -52 -27 -52 -10 0 12 14 28 30 34 11 4 15 20 14 59 l0 53 -38 1 c-30 0 -40 -4 -46 -20 -7 -17 -9 -17 -9 -2 -1 9 -8 17 -16 17 -8 0 -15 7 -15 15 0 8 -7 15 -15 15 -8 0 -15 5 -15 10 0 15 31 12 49 -4 15 -13 16 -10 15 37 0 44 -3 51 -18 49 -12 -2 -16 2 -14 14 3 15 -6 18 -49 18 -29 1 -53 1 -53 0 0 0 12 -11 28 -25 15 -13 21 -17 15 -9 -20 22 -15 35 5 17 10 -10 22 -14 25 -11 9 10 38 -17 34 -30 -3 -6 2 -19 11 -28 9 -11 10 -18 4 -18 -6 0 -13 4 -16 8 -3 5 -19 7 -36 4 -25 -4 -30 -1 -30 17 0 14 -5 19 -15 15 -13 -5 -19 4 -17 26 0 3 -26 5 -59 4 -49 -2 -59 1 -57 14 2 9 -5 16 -20 17 -20 1 -21 0 -7 -15 14 -16 10 -17 -57 -16 -62 1 -73 4 -72 18 1 10 -4 14 -12 11 -9 -3 -12 5 -11 28 2 27 -2 33 -20 34 -17 1 -20 -2 -13 -14 5 -9 4 -23 -2 -34 -7 -14 -7 -17 1 -12 17 10 41 -14 41 -41 l0 -24 -41 20 c-23 12 -43 19 -47 16 -3 -3 -11 -1 -19 5 -9 9 -13 8 -13 0 0 -6 -11 -16 -25 -21 -17 -7 -23 -14 -18 -26 4 -12 2 -15 -8 -10 -8 3 -22 9 -31 12 -26 9 -22 23 7 30 14 3 25 12 25 20 0 8 9 14 19 14 22 0 35 26 19 36 -6 4 -19 -3 -29 -15 -29 -35 -76 -44 -109 -21 -15 10 -33 26 -40 35 -10 13 -9 15 7 15 10 0 26 13 36 29 9 16 28 32 41 35 14 3 28 15 31 26 9 28 25 25 25 -4 0 -30 -45 -86 -69 -86 -23 0 -31 -9 -24 -26 7 -18 32 -18 39 0 3 8 19 18 35 21 16 4 29 10 29 15 0 4 8 10 18 12 27 7 24 83 -4 83 -12 0 -19 6 -18 17 1 10 -4 14 -13 11 -10 -4 -14 0 -11 13 2 14 -2 18 -15 16 -13 -2 -17 2 -15 15 2 13 -2 17 -16 15 -13 -3 -17 1 -13 12 8 19 -5 27 -23 15 -13 -8 -13 -10 0 -19 12 -8 12 -10 1 -10 -11 0 -11 -3 -1 -14 6 -8 17 -13 24 -10 15 6 31 -11 41 -44 5 -17 3 -23 -7 -21 -32 4 -58 -2 -58 -14 0 -8 -8 -21 -18 -30 -16 -14 -19 -14 -42 4 -21 16 -23 20 -10 29 8 5 25 10 38 10 12 0 22 3 23 8 0 4 2 17 3 30 2 16 -3 22 -16 22 -17 0 -19 6 -15 45 2 24 0 42 -5 39 -4 -3 -13 -2 -20 2 -8 5 -6 9 7 14 20 7 29 50 10 50 -6 0 -29 9 -52 19 -22 11 -49 18 -61 15 -13 -4 -28 2 -41 15 l-21 21 30 -4 c17 -2 31 1 31 5 6 50 4 54 -31 52 -19 -1 -40 -10 -47 -19 -12 -16 -13 -16 -13 4 0 13 6 22 15 22 10 0 15 10 15 30 0 29 2 30 41 28 29 -1 45 -8 59 -25 22 -29 27 -29 25 0 -1 14 -8 21 -18 19 -12 -2 -15 5 -14 30 2 32 1 33 -30 30 -27 -3 -33 0 -33 16 0 18 -6 19 -51 13 -3 -1 -4 -12 -2 -25 5 -24 -33 -76 -56 -76 -16 0 -14 18 4 28 9 4 17 19 18 32 1 14 10 33 20 43 20 20 15 39 -8 30 -9 -3 -14 -13 -13 -22 2 -10 -5 -17 -21 -19 -21 -3 -23 -1 -16 20 10 31 10 79 1 101 -6 12 -4 17 8 17 9 0 16 -7 16 -15 0 -8 8 -16 18 -16 9 -1 28 -2 42 -3 33 -1 53 -15 46 -31 -7 -19 14 -32 46 -29 19 2 33 -5 47 -22 23 -30 28 -30 26 -1 -1 13 -8 21 -17 19 -12 -2 -15 9 -14 48 0 45 2 50 22 50 13 0 31 -11 42 -25 24 -31 29 -31 27 -2 -1 13 -8 21 -16 20 -12 -3 -15 19 -16 122 l0 124 31 12 c17 7 34 14 39 17 9 4 9 -30 1 -52 -3 -9 -17 -16 -30 -16 -13 0 -24 -4 -24 -10 0 -5 8 -10 18 -10 9 0 13 -4 7 -8 -21 -15 -5 -65 19 -56 8 3 23 -6 34 -20 23 -30 34 -33 26 -8 -5 16 -5 16 9 0 19 -24 24 -23 22 5 -1 18 -7 22 -32 20 -27 -1 -30 1 -31 32 -1 28 2 33 24 33 14 0 29 -9 35 -19 5 -11 7 -19 3 -19 -3 0 -1 -6 5 -14 6 -7 24 -12 41 -10 21 3 34 -3 48 -21 24 -31 29 -31 27 -2 -1 14 -8 21 -17 19 -11 -1 -15 6 -15 23 0 17 5 25 17 25 11 0 16 7 15 23 -1 14 -8 21 -17 19 -12 -2 -15 7 -14 40 1 41 -3 48 -22 48 -11 0 -9 -31 3 -49 6 -11 4 -13 -7 -9 -8 4 -21 3 -28 -2 -18 -11 -2 -32 19 -25 10 3 24 -1 31 -10 19 -23 -1 -40 -37 -29 -15 4 -35 8 -43 9 -11 0 -14 10 -12 38 3 35 0 39 -33 52 -42 18 -45 32 -9 45 29 11 44 6 44 -16 0 -19 26 -18 34 2 4 11 -1 18 -14 21 -12 3 -20 14 -20 27 0 15 3 17 9 8 10 -16 58 -42 78 -42 8 0 12 4 8 10 -3 5 -12 7 -20 4 -12 -5 -14 1 -11 25 3 24 0 31 -14 31 -10 0 -21 6 -24 13 -3 8 -13 3 -28 -15 -13 -16 -31 -28 -41 -28 -9 0 -32 -16 -51 -35 -20 -19 -43 -35 -53 -35 -15 1 -14 4 7 21 77 62 143 137 165 187 11 23 24 41 29 39 17 -6 9 -58 -10 -71 -11 -9 -14 -19 -9 -35 5 -17 10 -20 18 -12 6 6 19 11 30 11 13 0 18 -6 16 -22 -4 -29 8 -49 25 -42 8 3 23 -6 34 -20 24 -32 29 -32 27 -3 -1 15 -8 21 -19 19 -13 -2 -15 3 -11 28 5 26 2 32 -21 40 -22 9 -25 14 -19 38 6 26 30 52 48 52 5 0 6 -19 3 -44 -6 -41 -5 -45 16 -48 17 -2 22 -9 21 -26 -2 -12 2 -22 8 -22 5 0 7 5 4 10 -3 6 -1 10 4 10 6 0 11 -4 11 -10 0 -5 4 -10 8 -10 5 0 8 10 7 23 -1 13 -8 21 -16 20 -19 -3 -52 94 -34 101 8 3 13 26 13 68 1 35 3 78 6 96 5 28 3 32 -15 32 -15 0 -19 5 -15 15 3 9 -4 21 -19 31 -19 12 -22 20 -16 37 5 12 6 28 3 35 -3 11 -1 11 16 1 12 -7 24 -10 28 -7 9 10 -19 68 -33 68 -7 0 -13 8 -13 19 0 13 7 19 25 19 18 0 25 -5 23 -17 -2 -9 3 -15 11 -13 33 7 56 -49 29 -76 -9 -9 -8 -17 2 -37 10 -19 11 -30 2 -51 -8 -16 -8 -23 -2 -19 19 12 40 -15 36 -46 -3 -27 -1 -29 31 -29 26 0 34 -4 30 -14 -3 -8 3 -22 14 -32 19 -17 20 -17 14 2 -6 18 -6 18 8 2 19 -24 24 -23 22 5 -1 15 -7 21 -20 19 -12 -2 -16 1 -12 11 3 9 -1 14 -11 13 -13 -1 -17 8 -17 34 0 33 -2 35 -31 33 l-31 -1 0 69 c0 65 1 68 18 53 10 -9 17 -27 15 -42 -3 -31 10 -53 28 -46 7 3 21 -5 32 -17 19 -22 19 -22 -1 -15 -16 6 -14 1 9 -23 16 -17 27 -34 23 -37 -10 -11 13 -33 28 -28 7 3 22 -6 33 -20 24 -32 29 -32 27 -3 -1 14 -8 21 -18 19 -12 -2 -15 5 -14 30 2 31 0 33 -30 31 -29 -1 -31 1 -30 30 2 25 -2 31 -14 29 -14 -2 -17 6 -15 45 l1 48 -33 -2 c-25 -1 -32 2 -30 15 2 12 -3 16 -15 14 -13 -2 -17 2 -15 15 2 13 -2 17 -15 15 -13 -2 -17 2 -15 15 2 12 -2 17 -14 15 -14 -2 -17 3 -14 28 3 24 0 30 -15 30 -12 0 -19 7 -19 19 0 14 -6 18 -29 15 -27 -3 -29 -1 -28 31 1 19 5 35 9 35 4 0 8 -4 8 -10 0 -5 4 -10 8 -10 10 0 9 34 -1 38 -19 6 -37 0 -37 -13 0 -31 -17 -13 -18 19 -1 38 22 55 55 38 10 -5 39 -8 65 -6 40 2 51 -1 67 -22 23 -30 28 -30 26 -1 -1 14 -8 21 -17 19 -13 -2 -15 7 -14 44 1 43 -1 48 -22 49 -16 1 -27 -5 -32 -19 -8 -20 -9 -20 -9 -1 -1 18 -8 20 -81 20 -73 0 -94 -5 -72 -19 4 -2 9 -20 10 -38 2 -28 -1 -34 -18 -35 -18 -2 -20 3 -18 44 l3 47 -39 1 c-30 0 -40 -4 -44 -17 -5 -22 -67 -25 -75 -4 -3 8 -18 17 -34 19 -15 2 0 3 34 2 34 -1 62 1 61 4 -2 27 4 33 32 29 17 -3 30 0 30 6 0 6 4 5 9 -3 6 -10 13 -10 28 -2 11 5 36 8 55 5 37 -6 83 10 73 26 -6 9 -30 10 -224 11 -66 0 -77 3 -98 25 -17 18 -29 23 -51 19 -27 -4 -29 -2 -30 27 -1 40 10 48 71 48 26 0 47 5 47 10 0 6 -9 10 -19 10 -11 0 -23 5 -26 10 -4 6 15 10 50 10 35 0 54 -4 50 -10z m-977 -16 c18 -12 42 -14 125 -10 56 3 147 7 203 9 l100 4 -4 -31 c-6 -44 -31 -69 -62 -63 -13 3 -33 1 -43 -5 -13 -6 -23 -6 -33 2 -8 7 -21 9 -31 5 -10 -5 -22 -7 -28 -6 -5 1 -19 4 -30 5 -11 1 -27 5 -35 9 -8 3 -48 7 -89 9 -50 3 -76 8 -79 17 -2 7 -13 21 -23 29 -39 34 -14 57 29 26z m486 7 c3 -5 -5 -8 -19 -8 -14 0 -22 3 -19 8 3 5 11 9 19 9 8 0 16 -4 19 -9z m176 -6 c0 -7 8 -19 18 -24 16 -10 16 -10 0 -11 -16 0 -58 33 -58 45 0 3 9 5 20 5 11 0 20 -7 20 -15z m-735 -41 c22 -34 2 -39 -50 -14 -41 20 -54 37 -39 52 11 11 74 -16 89 -38z m1190 36 c18 -8 18 -9 -6 -9 -14 -1 -40 -12 -57 -25 -28 -20 -37 -22 -57 -12 -33 15 -31 23 8 40 36 16 83 19 112 6z m-1350 -18 c0 -18 -20 -15 -23 4 -3 10 1 15 10 12 7 -3 13 -10 13 -16z m1495 -12 c20 -6 14 -8 -28 -9 -33 -1 -51 3 -47 9 7 12 39 12 75 0z m135 -40 c3 -5 17 -10 30 -10 34 0 40 -17 7 -23 -15 -2 -41 -10 -58 -17 -18 -8 -39 -10 -50 -5 -17 6 -15 9 11 17 17 5 37 12 45 15 11 3 9 8 -10 18 -24 14 -24 14 -3 15 12 0 25 -4 28 -10z m-1561 -15 c3 -8 14 -15 24 -15 22 0 34 -9 26 -21 -3 -5 -18 -2 -34 6 -18 9 -40 12 -59 9 -23 -5 -31 -3 -31 8 0 21 10 28 41 28 15 0 29 -7 33 -15z m945 -6 c-7 -4 -8 -12 -5 -18 4 -6 12 -9 17 -5 6 3 19 -2 30 -12 20 -18 19 -18 -17 -36 -41 -20 -89 -24 -99 -8 -19 31 -109 -13 -128 -63 -7 -18 -57 -25 -57 -7 0 6 4 10 8 10 15 0 62 45 62 58 0 7 20 22 45 33 31 14 45 26 45 39 0 17 7 19 55 18 30 -1 50 -5 44 -9z m-251 -33 c-11 -8 -15 -20 -12 -33 3 -11 1 -24 -4 -27 -16 -10 -23 9 -16 43 5 23 12 31 28 31 19 -1 20 -2 4 -14z m72 -6 c0 -13 -7 -20 -20 -20 -19 0 -19 1 -2 19 22 25 22 25 22 1z m1037 0 c21 -11 49 -21 63 -21 17 -1 13 -4 -15 -9 -31 -7 -48 -4 -78 11 -21 10 -44 19 -53 19 -8 0 -12 5 -9 10 10 16 52 12 92 -10z m-1633 4 c22 -8 10 -24 -19 -24 -25 0 -39 12 -28 24 8 8 27 8 47 0z m896 -14 c0 -5 -10 -10 -22 -10 -19 0 -20 2 -8 10 19 13 30 13 30 0z m630 -6 c0 -20 -30 -25 -73 -13 -28 7 -36 13 -27 19 20 12 100 7 100 -6z m-1452 -10 c27 -8 29 -24 3 -24 -28 0 -52 11 -45 21 6 11 11 11 42 3z m128 -21 c12 -13 36 -19 82 -20 41 -2 68 -7 76 -16 6 -8 30 -23 54 -33 50 -21 53 -47 7 -52 -20 -2 -54 10 -98 33 -38 19 -77 35 -88 35 -10 0 -19 5 -19 10 0 6 -15 10 -34 10 -19 0 -42 3 -51 7 -15 5 -15 8 6 24 30 23 43 23 65 2z m1603 -7 c7 -8 26 -18 42 -21 16 -4 29 -11 29 -16 0 -13 -38 -11 -73 5 -18 8 -41 17 -52 20 -16 6 -17 9 -5 16 22 14 46 12 59 -4z m-1009 -16 c12 -8 11 -10 -7 -10 -13 0 -23 5 -23 10 0 13 11 13 30 0z m-345 -10 c-3 -5 -12 -10 -20 -10 -8 0 -17 5 -20 10 -4 6 5 10 20 10 15 0 24 -4 20 -10z m568 -98 c-3 -13 -13 -22 -24 -22 -24 0 -24 24 -1 48 20 21 34 7 25 -26z m1004 28 c14 -11 32 -20 40 -20 10 0 4 -14 -18 -44 -24 -35 -37 -44 -57 -43 -35 3 -39 25 -8 37 33 12 33 35 1 56 -26 17 -25 34 2 34 8 0 26 -9 40 -20z m-1417 -20 c0 -5 -7 -10 -15 -10 -8 0 -15 5 -15 10 0 6 7 10 15 10 8 0 15 -4 15 -10z m323 -10 c4 -14 10 -18 23 -13 13 5 16 3 11 -10 -4 -11 -1 -17 7 -17 7 0 21 -9 31 -20 10 -11 29 -20 42 -20 16 0 23 6 23 20 0 27 41 27 66 -1 14 -16 15 -20 4 -18 -39 8 -80 -32 -80 -76 0 -21 -15 -18 -26 4 -5 11 -29 35 -53 54 -39 31 -46 33 -59 21 -8 -8 -22 -14 -31 -12 -26 5 -18 32 14 48 28 14 29 15 8 18 -15 2 -23 10 -23 23 0 26 36 25 43 -1z m-401 4 c24 -4 38 -13 41 -25 6 -23 -2 -24 -70 -2 -82 26 -65 42 29 27z m1628 -29 c7 -8 19 -15 27 -15 7 0 16 -7 19 -15 3 -8 14 -17 24 -20 19 -6 37 -42 27 -52 -11 -10 -47 19 -47 37 0 13 -7 20 -20 20 -28 0 -62 -33 -55 -52 8 -20 -8 -30 -30 -22 -16 7 -16 8 0 16 11 7 15 17 11 34 -5 17 -1 26 16 35 l22 12 -22 8 c-12 5 -22 13 -22 19 0 15 36 12 50 -5z m-1449 -62 c21 -6 26 -23 7 -23 -29 1 -55 41 -41 63 5 8 9 3 11 -12 2 -13 12 -26 23 -28z m94 7 c10 -11 22 -20 27 -20 18 0 48 -37 42 -53 -4 -11 6 -23 30 -39 20 -13 36 -31 36 -40 0 -24 -12 -23 -42 5 -14 12 -45 33 -71 46 -25 14 -56 33 -69 43 l-23 18 28 0 c32 0 37 25 7 33 -11 3 -20 10 -20 16 0 18 36 12 55 -9z m362 -54 c-2 -6 0 -24 4 -39 7 -24 5 -28 -7 -23 -10 4 -18 -1 -21 -14 -4 -15 -14 -20 -39 -20 -31 0 -34 3 -34 29 0 30 37 81 58 81 7 0 9 8 5 18 -6 15 -4 15 16 -2 12 -11 20 -24 18 -30z m-207 -18 c0 -17 -3 -19 -9 -9 -5 7 -15 17 -22 22 -10 6 -8 9 9 9 16 0 22 -6 22 -22z m1260 -18 c0 -5 -6 -10 -14 -10 -8 0 -18 5 -21 10 -3 6 3 10 14 10 12 0 21 -4 21 -10z m110 -2 c0 -21 -17 -41 -28 -34 -14 8 -3 46 14 46 8 0 14 -6 14 -12z m-1272 -122 c-21 -16 -23 -32 -4 -39 15 -6 28 -45 17 -52 -4 -2 -27 14 -49 37 -33 32 -39 44 -31 55 9 10 8 17 -1 28 -11 13 -10 18 6 30 17 12 22 11 49 -16 28 -28 29 -31 13 -43z m1302 -19 c0 -71 -3 -87 -20 -102 -21 -19 -18 -21 -35 31 -3 8 -9 13 -15 9 -17 -11 -52 35 -46 60 3 13 2 27 -4 30 -5 3 -10 -3 -10 -14 0 -12 -5 -21 -11 -21 -6 0 -9 16 -7 38 3 36 4 37 47 40 37 3 48 -1 63 -20 l18 -23 0 28 c0 15 5 27 10 27 6 0 10 -34 10 -83z m-1260 -144 c0 -13 5 -23 10 -23 6 0 10 -14 10 -31 0 -17 -4 -28 -10 -24 -5 3 -10 17 -10 31 0 13 -4 24 -10 24 -5 0 -10 17 -10 38 0 27 3 33 10 22 5 -8 10 -25 10 -37z m1080 -218 c6 -8 10 -22 8 -31 -4 -22 -28 -31 -28 -10 0 9 -4 16 -10 16 -12 0 -13 -17 -1 -24 12 -8 23 -70 15 -90 -9 -24 -24 -19 -24 8 0 40 -11 56 -36 56 -32 0 -32 35 -1 65 26 27 59 31 77 10z m-1312 -187 c-7 -19 -38 -22 -38 -4 0 10 9 16 21 16 12 0 19 -5 17 -12z m1325 -75 c-7 -18 -20 -16 -32 4 -6 12 -6 24 1 37 10 19 11 18 23 -4 7 -13 11 -30 8 -37z m-1448 5 c-10 -31 -45 -58 -77 -58 -15 0 -33 -6 -40 -12 -16 -15 -55 -38 -64 -38 -4 0 1 9 11 20 10 11 24 20 31 20 7 0 14 4 16 9 6 17 93 79 111 80 14 1 17 -4 12 -21z m1402 -13 c35 -18 48 -58 26 -81 -16 -16 -53 -19 -53 -5 0 15 -31 42 -41 36 -5 -4 -9 -15 -9 -26 0 -15 -6 -20 -22 -17 -29 4 -35 28 -9 35 12 3 21 9 21 15 0 16 32 58 45 58 6 0 26 -7 42 -15z m-1359 -47 c3 -25 -20 -44 -39 -32 -13 8 -11 52 4 57 21 9 32 1 35 -25z m1456 -4 c8 -21 8 -24 -3 -24 -5 0 -11 9 -14 20 -6 24 8 27 17 4z m-1553 -34 c5 0 9 -9 9 -20 0 -14 -7 -20 -21 -20 -11 0 -28 -4 -38 -9 -10 -6 -23 -6 -32 0 -11 8 -9 14 16 34 17 14 36 23 43 20 8 -3 18 -5 23 -5z m-141 -34 c0 -14 -29 -31 -38 -21 -6 6 18 35 29 35 5 0 9 -6 9 -14z m300 -5 c0 -28 -13 -33 -39 -15 -26 18 -19 34 15 34 17 0 24 -5 24 -19z m-100 -41 c0 -11 -2 -20 -3 -20 -2 0 -12 9 -22 20 -18 19 -17 20 3 20 15 0 22 -6 22 -20z m-252 -33 c2 -9 -4 -31 -12 -49 -24 -47 -21 -67 10 -65 34 3 41 -16 15 -42 -12 -12 -21 -30 -21 -40 0 -11 -4 -22 -9 -25 -17 -11 -29 19 -35 88 -6 54 -3 78 11 112 18 44 35 52 41 21z m1947 3 c4 -6 24 -19 46 -30 46 -24 50 -40 11 -40 -25 0 -102 56 -102 74 0 10 38 7 45 -4z m-1877 -26 c2 -11 -6 -28 -17 -38 -20 -18 -20 -18 -27 8 -3 14 -3 33 0 42 8 22 40 13 44 -12z m1782 -103 c0 -6 -4 -12 -9 -15 -13 -8 -42 4 -35 15 7 12 44 12 44 0z m-1742 -28 c2 -15 -2 -23 -11 -23 -14 0 -31 -27 -42 -67 -6 -23 -29 -31 -39 -15 -9 15 6 52 20 52 9 0 14 12 14 33 0 40 7 49 35 45 12 -2 21 -12 23 -25z m2387 -77 c18 -13 18 -14 -3 -25 -18 -9 -27 -8 -47 5 -14 9 -22 20 -19 25 8 14 48 11 69 -5z m-2355 -47 c0 -12 -7 -19 -18 -19 -28 0 -34 12 -14 30 20 20 32 16 32 -11z m2463 11 c20 -11 48 -20 62 -20 23 0 24 -2 13 -20 -7 -11 -21 -20 -31 -20 -10 0 -20 -7 -23 -15 -4 -9 -19 -15 -40 -15 -24 0 -34 5 -34 15 0 10 10 15 30 15 17 0 30 5 30 10 0 19 -30 23 -53 7 -13 -8 -34 -17 -47 -19 -35 -5 -38 -28 -2 -28 35 0 45 -9 31 -27 -15 -18 -48 -17 -56 3 -3 8 -15 14 -27 13 -34 -4 -66 11 -66 31 0 10 5 22 11 25 6 4 8 13 5 21 -6 17 25 19 41 3 14 -14 66 0 59 17 -11 28 46 31 97 4z m-2583 -43 c0 -20 -1 -20 -16 -5 -9 9 -13 21 -9 27 10 16 25 3 25 -22z m65 -14 c-3 -15 -11 -31 -17 -34 -7 -5 1 -19 22 -37 23 -22 31 -36 26 -49 -6 -15 -13 -11 -47 26 -44 50 -47 62 -21 96 24 34 46 33 37 -2z m108 -3 c-7 -26 -43 -27 -43 -1 0 11 8 21 18 24 25 5 31 0 25 -23z m2172 -40 c7 0 15 -8 18 -19 3 -14 11 -17 31 -14 21 4 26 2 26 -15 0 -18 -6 -20 -50 -19 -39 1 -49 4 -47 16 1 10 -4 15 -15 13 -11 -2 -18 3 -18 13 0 21 34 55 38 38 2 -7 9 -13 17 -13z m331 19 c4 -8 26 -10 65 -5 54 5 59 4 78 -21 32 -40 28 -63 -11 -63 -166 -2 -187 0 -186 19 0 9 -3 24 -7 34 -6 14 -2 17 19 17 18 0 24 4 20 15 -7 17 11 20 22 4z m406 -41 c-9 -9 -15 -9 -24 0 -9 9 -7 12 12 12 19 0 21 -3 12 -12z m-2809 -34 c9 -9 -3 -34 -17 -34 -20 0 -39 17 -32 29 8 12 39 15 49 5z m-68 -35 c3 -4 -4 -13 -16 -19 l-21 -12 21 -14 c12 -9 21 -23 21 -33 0 -10 8 -21 18 -24 25 -6 37 -47 14 -47 -16 0 -122 107 -122 123 0 5 10 17 22 26 21 18 53 17 63 0z m102 -40 c-17 -10 -17 -12 -2 -35 15 -24 15 -24 -19 -24 -26 0 -38 6 -47 21 -15 29 7 45 66 48 19 0 19 0 2 -10z m3211 -14 c-13 -30 -32 -28 -36 3 -3 18 2 22 22 22 24 0 25 -2 14 -25z m599 3 c7 -5 63 -12 124 -14 62 -2 114 -6 116 -8 2 -2 -1 -16 -7 -31 -9 -24 -8 -26 7 -20 61 27 224 38 179 13 -9 -5 -16 -18 -16 -28 0 -18 -6 -19 -57 -16 -42 2 -68 -2 -95 -15 l-37 -19 -19 25 c-19 24 -62 35 -62 15 0 -5 -9 -10 -21 -10 -18 0 -18 2 7 25 15 14 35 25 45 25 18 0 28 19 12 21 -5 0 -28 2 -53 3 -25 2 -97 5 -160 6 -112 3 -187 20 -175 39 7 12 196 1 212 -11z m-470 -35 c6 -17 -34 -26 -84 -18 -54 8 -46 22 17 28 56 4 63 3 67 -10z m264 -38 c0 -5 -7 -12 -16 -13 -23 -5 -47 6 -40 19 8 13 56 8 56 -6z m281 -9 c14 -21 8 -24 -39 -22 -47 1 -48 0 -51 -30 l-3 -32 -132 2 c-106 2 -139 -1 -169 -15 l-37 -17 1 49 c0 49 0 49 32 49 19 0 40 -8 50 -19 9 -10 28 -18 41 -18 13 0 32 8 41 18 21 24 42 24 67 2 26 -24 67 -25 67 -1 0 13 8 18 25 18 15 0 25 6 25 14 0 26 65 28 82 2z m610 -21 c-53 -24 -62 -45 -19 -45 16 0 18 -3 9 -12 -9 -9 -20 -9 -49 1 -34 13 -38 12 -54 -8 -9 -11 -24 -21 -32 -21 -8 0 -26 -9 -41 -21 -24 -19 -30 -20 -59 -8 -18 7 -36 16 -42 20 -17 12 -60 4 -57 -10 1 -7 -2 -18 -7 -25 -5 -6 -7 -25 -5 -43 3 -29 0 -33 -31 -44 -19 -7 -35 -18 -35 -25 0 -6 -9 -14 -20 -17 -20 -5 -28 -27 -10 -27 6 0 10 -4 10 -10 0 -15 -40 -12 -46 4 -3 8 -15 11 -31 8 -23 -4 -25 -3 -20 20 5 17 2 30 -8 38 -18 15 -10 30 16 30 15 0 19 -6 17 -32 -2 -23 2 -33 13 -36 24 -5 31 26 14 60 -12 25 -12 29 0 24 18 -7 86 60 79 79 -4 9 3 16 19 20 14 4 28 13 31 21 3 8 19 14 35 14 21 0 32 6 36 21 6 18 12 20 40 15 24 -5 45 -1 72 14 31 16 56 20 133 19 l95 0 -53 -24z m163 -6 c10 -16 5 -17 -68 -25 -57 -6 -67 -4 -67 9 0 12 12 17 48 20 26 2 55 4 64 5 9 1 20 -3 23 -9z m-4665 -15 c0 -17 -22 -14 -28 4 -2 7 3 12 12 12 9 0 16 -7 16 -16z m50 -35 c0 -5 -9 -9 -20 -9 -19 0 -26 11 -14 23 8 8 34 -3 34 -14z m3960 -49 c0 -13 -7 -20 -20 -20 -13 0 -20 7 -20 20 0 13 7 20 20 20 13 0 20 -7 20 -20z m-3445 -95 c0 -18 -6 -20 -69 -19 -47 0 -71 5 -74 13 -3 10 4 11 24 7 17 -3 39 0 54 9 34 20 65 15 65 -10z m-246 -12 c17 -10 31 -21 31 -25 0 -4 18 -17 39 -28 22 -11 44 -27 49 -36 6 -11 16 -15 27 -10 14 5 15 9 5 21 -27 32 28 49 61 19 23 -21 65 -11 74 16 9 28 55 28 55 0 0 -10 -9 -24 -20 -30 -17 -9 -18 -14 -8 -35 14 -32 34 -26 31 9 -1 17 3 26 13 26 8 0 14 -9 14 -20 0 -14 7 -20 23 -20 13 0 32 -9 42 -20 16 -18 16 -20 1 -26 -27 -11 -18 -24 13 -18 27 6 29 4 24 -16 -3 -12 -16 -26 -29 -31 -13 -4 -24 -13 -24 -19 0 -5 -11 -10 -24 -10 -14 0 -28 -4 -31 -10 -3 -5 -13 -10 -21 -10 -8 0 -14 5 -14 10 0 6 7 10 15 10 8 0 15 6 15 14 0 7 9 16 20 19 23 6 27 37 5 37 -8 0 -19 -9 -25 -20 -6 -11 -20 -20 -30 -20 -11 0 -20 -4 -20 -10 0 -5 -11 -10 -25 -10 -14 0 -25 5 -25 10 0 6 11 10 25 10 18 0 25 5 25 20 0 14 -7 20 -23 20 -24 0 -59 29 -56 46 4 23 -3 34 -20 34 -29 0 -35 -17 -11 -32 11 -7 20 -20 20 -29 0 -9 9 -19 21 -22 12 -3 18 -10 14 -16 -10 -16 -32 -13 -47 7 -7 9 -30 26 -50 37 -21 11 -38 23 -38 26 0 4 -12 10 -26 13 -14 4 -37 20 -51 36 -14 17 -33 30 -44 30 -14 0 -19 7 -19 25 0 16 -6 25 -15 25 -8 0 -15 5 -15 10 0 15 14 12 49 -7z m3594 10 c4 -3 -2 -13 -13 -20 -16 -12 -24 -12 -35 -3 -8 7 -12 16 -9 21 6 10 48 12 57 2z m17 -93 c0 -19 -25 -34 -41 -24 -15 9 -10 32 8 43 22 12 33 5 33 -19z m71 -38 c-5 -10 -17 -25 -26 -32 -10 -8 -21 -25 -26 -39 -9 -22 -11 -23 -26 -9 -14 15 -14 18 0 38 15 22 64 58 80 59 4 1 3 -7 -2 -17z m-131 -76 c0 -8 10 -18 21 -21 17 -6 19 -9 8 -16 -8 -4 -23 -6 -35 -3 -14 4 -23 0 -27 -11 -11 -27 -47 0 -46 33 1 17 3 20 6 10 6 -25 43 -23 43 2 0 11 7 20 15 20 8 0 15 -6 15 -14z m-2893 -71 c-2 -5 0 -22 4 -37 8 -31 -5 -38 -20 -11 -5 10 -13 15 -17 11 -4 -4 -1 -14 6 -23 7 -8 10 -25 6 -39 -4 -15 -1 -26 6 -28 6 -2 9 -11 5 -20 -8 -22 -48 -11 -54 14 -3 11 -14 18 -29 18 -13 0 -46 14 -73 30 -38 24 -48 35 -44 50 4 14 0 20 -11 20 -9 0 -16 5 -16 10 0 6 9 10 20 10 11 0 20 -4 20 -10 0 -16 31 -12 51 6 10 9 25 14 34 11 22 -9 18 -25 -7 -29 -34 -5 -35 -37 -1 -64 41 -34 55 -31 48 10 -4 18 -2 36 3 40 5 3 8 29 6 57 l-3 52 35 -34 c19 -18 33 -38 31 -44z m2828 -35 c-10 -11 -22 -20 -27 -20 -5 0 -4 9 2 20 6 11 18 20 27 20 14 0 14 -2 -2 -20z m-45 -40 c0 -5 -9 -14 -20 -20 -15 -8 -20 -8 -20 3 0 8 3 17 7 20 10 10 33 8 33 -3z m-280 -61 c0 -25 -36 -60 -53 -53 -11 4 -11 12 -3 38 8 25 16 34 33 34 16 0 23 -6 23 -19z m220 6 c0 -16 -27 -32 -37 -22 -3 4 -3 13 0 22 8 20 37 20 37 0z m-2000 -36 c0 -26 -54 -26 -82 0 -21 20 -21 20 31 19 43 0 51 -3 51 -19z m1867 -10 c4 -16 11 -19 29 -15 29 8 32 -9 5 -24 -26 -13 -31 -13 -31 5 0 10 -10 15 -30 15 -30 0 -42 -21 -20 -35 19 -12 0 -26 -20 -15 -11 6 -28 7 -42 1 -27 -10 -88 -3 -88 10 0 6 21 7 50 3 29 -4 50 -3 50 3 0 5 12 24 26 41 31 37 63 42 71 11z m-2335 -11 c-7 -7 -12 -22 -12 -34 0 -20 -3 -21 -42 -13 -24 4 -46 8 -50 9 -5 0 -8 7 -8 15 0 11 11 15 39 15 22 0 43 5 46 10 3 6 14 10 23 10 12 0 13 -3 4 -12z m138 -74 c0 -12 5 -14 18 -9 9 5 32 10 50 13 18 2 34 8 37 12 3 5 18 2 33 -6 15 -7 37 -14 50 -14 19 0 22 -5 22 -35 0 -29 -4 -35 -22 -35 -20 0 -20 1 -4 13 11 8 15 19 10 30 -9 24 -27 16 -34 -14 -4 -17 -15 -25 -35 -29 -24 -4 -31 -11 -33 -33 -3 -22 1 -30 17 -34 12 -3 21 -9 21 -14 0 -13 -12 -11 -35 5 -11 7 -32 16 -48 20 -22 5 -26 11 -22 29 4 16 -1 29 -17 43 -26 24 -59 28 -51 7 8 -20 -37 -16 -83 7 l-39 19 34 1 c30 0 33 2 27 24 -8 31 3 40 25 20 21 -19 39 -11 39 18 l0 22 20 -22 c11 -12 20 -29 20 -38z m2006 4 c3 -5 -4 -19 -16 -30 -20 -19 -21 -19 -18 -2 2 13 -2 18 -13 16 -12 -1 -16 5 -16 22 0 22 2 23 28 14 16 -5 32 -14 35 -20z m-2176 -3 c0 -8 -6 -15 -14 -15 -20 0 -29 17 -14 23 22 9 28 7 28 -8z m2295 -36 c-8 -12 -35 -12 -35 0 0 11 22 20 33 14 4 -2 5 -9 2 -14z m-72 -8 c3 -11 -4 -26 -16 -36 -30 -26 -206 -115 -227 -115 -21 0 -70 -41 -70 -58 0 -13 -39 -36 -47 -28 -11 11 20 67 49 87 21 15 38 20 59 15 22 -4 32 -1 41 14 7 11 20 20 30 20 25 0 32 20 12 34 -10 8 -15 20 -11 30 9 22 24 20 37 -4 14 -26 46 -26 53 0 3 13 10 18 21 14 15 -6 21 4 17 34 -3 20 46 14 52 -7z m-1788 -51 c3 -5 -3 -10 -14 -10 -12 0 -21 5 -21 10 0 6 6 10 14 10 8 0 18 -4 21 -10z m-41 -50 c34 0 64 -14 49 -23 -6 -4 -29 -9 -51 -13 -39 -6 -42 -5 -42 16 0 13 -8 24 -20 27 -12 3 -20 14 -20 26 0 18 2 18 26 -7 17 -17 38 -26 58 -26z m121 20 c8 -13 -20 -24 -41 -16 -20 8 -9 26 16 26 10 0 22 -5 25 -10z m1354 -40 c-47 -45 -74 -53 -63 -17 8 26 3 21 39 40 57 31 68 20 24 -23z m-1359 -32 c-1 -20 -29 -52 -37 -43 -5 4 -3 10 3 12 7 2 10 13 7 23 -4 14 0 20 11 20 9 0 16 -6 16 -12z m198 -21 c7 3 12 -3 12 -14 0 -23 34 -53 60 -53 12 0 23 -7 27 -15 7 -19 5 -20 -25 -29 -17 -6 -24 -3 -30 15 -7 19 -16 22 -58 23 l-49 1 -1 41 c-2 41 -1 42 25 35 14 -5 32 -6 39 -4z m-68 -81 c0 -8 14 -16 33 -19 78 -12 152 -57 94 -57 -25 0 -118 37 -127 50 -3 4 -15 10 -28 14 -12 4 -20 12 -17 17 9 14 45 11 45 -5z m970 -36 c25 -25 38 -25 65 0 14 13 25 16 35 10 11 -7 9 -12 -11 -29 -13 -11 -30 -20 -37 -21 -7 0 -31 -12 -53 -26 -50 -31 -61 -26 -20 9 16 13 27 28 24 31 -12 12 -51 6 -57 -10 -4 -10 -15 -14 -31 -12 -32 4 -35 20 -6 34 13 7 28 17 34 23 16 16 35 13 57 -9z m-720 1 c0 -16 -20 -23 -46 -17 -36 9 -29 26 11 26 19 0 35 -4 35 -9z m120 0 c0 -12 -56 -25 -70 -16 -6 3 -8 11 -5 16 8 12 75 12 75 0z m160 -6 c0 -8 -4 -15 -10 -15 -5 0 -10 7 -10 15 0 8 5 15 10 15 6 0 10 -7 10 -15z m228 -12 c4 -29 -27 -31 -51 -5 -21 22 -12 34 23 30 17 -2 26 -10 28 -25z m-283 -26 c-17 -6 -33 -15 -37 -20 -3 -6 -25 -13 -49 -16 -55 -8 -59 -23 -10 -38 22 -7 56 -24 77 -38 30 -20 33 -25 16 -25 -11 0 -24 5 -27 10 -3 6 -17 10 -30 10 -13 0 -33 10 -44 21 -11 12 -44 27 -73 35 -61 15 -125 37 -134 47 -15 15 58 6 81 -9 21 -14 28 -14 41 -3 9 7 42 14 74 15 33 1 67 8 80 17 12 8 31 12 43 9 20 -5 19 -6 -8 -15z m124 14 c10 -6 10 -10 1 -16 -15 -10 -62 3 -55 15 8 12 35 13 54 1z m234 -44 c36 -15 34 -30 -6 -61 -52 -40 -54 -37 -19 31 10 19 8 23 -9 28 -16 5 -28 -1 -48 -26 -28 -33 -28 -33 -40 -11 -10 19 -9 23 14 34 14 6 25 15 25 20 0 9 41 2 83 -15z m-188 -106 c3 -5 2 -12 -3 -15 -13 -8 -53 5 -46 15 7 12 41 12 49 0z m123 -11 c11 -18 10 -20 -8 -20 -11 0 -23 -7 -27 -15 -9 -25 -60 -47 -80 -36 -10 5 -31 13 -48 17 -26 7 -20 9 41 17 60 8 74 13 85 33 15 29 21 30 37 4z m-214 -9 c7 -11 -22 -23 -35 -15 -5 3 -9 9 -9 15 0 12 37 12 44 0z"/> <path d="M7779 9697 c-42 -32 -47 -90 -12 -129 24 -27 94 -24 121 5 48 51 12 137 -56 137 -20 0 -44 -6 -53 -13z"/> <path d="M6854 9572 c-12 -9 -27 -28 -34 -40 -24 -48 29 -112 93 -112 13 0 36 13 51 29 25 26 28 35 22 67 -13 66 -83 96 -132 56z"/> <path d="M11028 9359 c-14 -6 -33 -25 -42 -44 -15 -31 -15 -38 -2 -63 22 -42 40 -54 82 -50 31 2 43 10 61 37 29 42 29 59 0 93 -26 31 -61 41 -99 27z"/> <path d="M8347 9126 c-41 -31 -36 -123 8 -140 62 -24 125 12 125 73 0 64 -82 105 -133 67z"/> <path d="M10390 8975 c-31 -33 -32 -87 -2 -117 26 -27 79 -29 116 -5 22 15 26 25 26 62 0 56 -27 85 -80 85 -26 0 -43 -7 -60 -25z"/> <path d="M9971 8749 c-181 -10 -219 -16 -231 -39 -17 -31 -12 -75 11 -96 25 -22 53 -22 353 -2 166 10 191 14 207 32 25 26 24 71 -1 96 -22 22 -81 24 -339 9z"/> <path d="M9034 8570 c-30 -12 -54 -49 -54 -81 0 -40 29 -69 76 -76 35 -4 45 -1 67 21 37 37 36 79 -2 117 -30 30 -50 34 -87 19z"/> <path d="M10790 8427 c-38 -19 -48 -61 -23 -95 19 -26 26 -27 129 -35 60 -4 228 -6 372 -5 264 3 264 3 283 27 24 29 24 73 1 94 -15 14 -65 17 -378 21 -271 4 -366 2 -384 -7z"/> <path d="M9886 8125 c-69 -64 5 -172 94 -135 29 12 40 34 40 86 0 67 -82 97 -134 49z"/> <path d="M8914 8122 c-16 -10 -34 -48 -34 -69 0 -11 9 -29 20 -41 20 -22 26 -22 283 -22 144 0 267 4 274 8 38 24 34 100 -6 121 -22 13 -519 15 -537 3z"/> <path d="M10491 8070 c-173 -7 -174 -7 -198 -34 -28 -33 -29 -46 -2 -80 l21 -27 243 3 c226 3 244 4 265 23 18 16 21 27 17 59 -3 21 -10 43 -17 50 -14 14 -109 16 -329 6z"/> <path d="M10065 7540 c-38 -4 -155 -8 -258 -9 -108 0 -197 -5 -208 -11 -14 -8 -19 -21 -19 -55 0 -82 -17 -79 404 -71 232 5 378 11 390 18 29 15 36 28 36 70 0 56 -31 68 -167 66 -59 0 -139 -4 -178 -8z"/> <path d="M11138 7530 c-61 -47 -31 -149 44 -150 40 0 57 9 73 41 22 42 18 67 -14 100 -34 34 -68 37 -103 9z"/> <path d="M5158 9028 c8 -8 17 -8 34 0 22 10 21 11 -11 11 -27 1 -32 -2 -23 -11z"/> <path d="M5300 9010 c-26 -5 -31 -8 -18 -14 22 -10 83 -3 81 9 -3 13 -19 14 -63 5z"/> <path d="M7265 8759 c-4 -6 -5 -13 -2 -16 7 -7 27 6 27 18 0 12 -17 12 -25 -2z"/> <path d="M7370 8613 c0 -2 9 -12 20 -23 25 -25 27 -25 25 2 -1 14 -9 22 -23 23 -12 1 -22 0 -22 -2z"/> <path d="M7257 8518 c20 -21 38 -38 38 -38 1 0 1 10 0 23 -1 15 -8 21 -19 19 -12 -2 -16 2 -14 14 2 12 -4 18 -20 19 -21 2 -20 -2 15 -37z"/> <path d="M7790 8518 c0 -4 5 -8 10 -8 6 0 10 -5 10 -11 0 -5 -6 -7 -12 -3 -7 4 -5 -2 6 -14 23 -26 36 -20 32 15 -2 19 -9 27 -25 28 -11 1 -21 -2 -21 -7z"/> <path d="M7892 8513 c6 -8 8 -16 5 -20 -4 -3 -1 -13 6 -21 10 -13 9 -15 -7 -9 -16 6 -17 5 -7 -7 7 -8 10 -19 7 -24 -3 -5 3 -17 12 -26 17 -15 18 -13 16 32 l-3 47 30 -32 c27 -31 47 -44 34 -23 -3 6 -1 10 4 10 6 0 11 -4 11 -10 0 -5 4 -10 8 -10 5 0 8 10 7 23 -1 18 -7 22 -33 20 -28 -1 -30 1 -29 30 2 29 0 31 -35 32 -29 0 -35 -2 -26 -12z"/> <path d="M7580 8463 c0 -2 9 -12 20 -23 25 -25 27 -25 25 2 -1 14 -9 22 -23 23 -12 1 -22 0 -22 -2z"/> <path d="M7760 8458 c0 -4 5 -8 10 -8 6 0 10 -5 10 -11 0 -5 -4 -7 -10 -4 -20 12 -9 -4 26 -39 35 -35 51 -46 39 -26 -3 6 -1 10 4 10 6 0 11 -4 11 -10 0 -5 5 -10 11 -10 5 0 7 5 4 10 -3 6 -1 10 4 10 6 0 11 -4 11 -10 0 -5 4 -10 8 -10 5 0 8 10 7 23 -1 20 -7 22 -48 21 -45 -2 -45 -1 -44 29 2 25 -2 31 -20 32 -13 1 -23 -2 -23 -7z"/> <path d="M7430 8402 c0 -2 11 -13 25 -24 18 -14 24 -27 21 -49 -4 -33 8 -45 40 -41 15 2 23 -4 27 -17 3 -14 11 -19 20 -15 9 3 23 -5 35 -20 24 -32 29 -32 27 -3 -1 14 -8 21 -17 19 -12 -2 -15 10 -14 60 l1 63 -63 -1 c-50 -1 -62 2 -60 14 2 9 -5 16 -19 17 -13 1 -23 0 -23 -3z"/> <path d="M7602 8383 c26 -28 25 -28 23 -1 -1 14 -9 22 -23 23 l-22 2 22 -24z"/> <path d="M7422 8353 c26 -28 25 -28 23 -1 -1 14 -9 22 -23 23 l-22 2 22 -24z"/> <path d="M8000 8374 c0 -13 75 -74 91 -74 11 0 18 4 14 10 -3 5 -13 6 -21 3 -11 -4 -15 0 -12 13 2 14 -2 18 -15 16 -12 -2 -17 2 -15 14 2 11 -4 18 -19 19 -13 1 -23 0 -23 -1z"/> <path d="M7453 8283 c-10 -3 -10 -9 0 -24 15 -24 24 -24 22 1 -2 24 -6 29 -22 23z"/> <path d="M8060 8278 c0 -4 5 -8 10 -8 6 0 10 -4 10 -9 0 -5 -11 -8 -25 -6 -30 3 -32 -6 -5 -23 12 -7 20 -8 20 -2 0 5 7 10 15 10 13 0 19 18 13 37 -4 10 -38 11 -38 1z"/> <path d="M7490 8252 c0 -3 8 -11 18 -19 16 -14 16 -14 -3 -8 -17 5 -17 3 4 -19 14 -15 25 -26 26 -26 0 0 0 17 0 37 -1 30 -5 37 -23 38 -12 1 -22 0 -22 -3z"/> <path d="M7940 8188 c0 -4 5 -8 10 -8 6 0 10 -5 10 -11 0 -5 -4 -7 -10 -4 -20 12 -9 -4 26 -39 20 -20 37 -36 39 -36 1 0 2 10 1 23 -1 15 -7 21 -18 19 -13 -2 -16 5 -15 29 2 27 -2 33 -20 34 -13 1 -23 -2 -23 -7z"/> <path d="M8154 8147 c-8 -21 2 -35 16 -21 5 5 6 15 0 24 -8 12 -10 12 -16 -3z"/> <path d="M7640 8132 c0 -2 11 -13 25 -24 18 -14 24 -27 21 -48 -4 -38 8 -47 62 -44 34 1 46 -3 61 -22 23 -30 28 -30 26 -1 -1 14 -8 21 -17 19 -13 -2 -15 7 -14 45 l1 48 -63 -1 c-50 -1 -62 2 -60 14 2 9 -5 16 -19 17 -13 1 -23 0 -23 -3z"/> <path d="M7812 8113 c26 -28 25 -28 23 -1 -1 14 -9 22 -23 23 l-22 2 22 -24z"/> <path d="M7298 8103 c-10 -3 -18 -11 -18 -18 0 -7 -3 -20 -6 -28 -3 -8 2 -22 11 -30 10 -11 14 -28 12 -51 -3 -25 1 -40 13 -51 16 -15 17 -14 14 17 -3 29 -2 31 10 16 14 -19 32 -25 21 -8 -3 6 -1 10 4 10 6 0 11 -4 11 -10 0 -5 4 -10 8 -10 5 0 8 10 7 23 -1 18 -7 22 -32 20 l-31 -1 2 59 c2 64 1 68 -26 62z"/> <path d="M7340 8099 c0 -4 7 -12 16 -17 15 -8 14 -10 -2 -16 -16 -6 -16 -8 6 -19 14 -7 25 -20 25 -30 0 -9 7 -23 15 -32 14 -13 15 -11 14 23 0 28 -5 36 -17 34 -12 -2 -15 5 -14 29 2 27 -2 33 -20 34 -13 1 -23 -2 -23 -6z"/> <path d="M7640 8011 c0 -4 9 -12 20 -19 18 -11 25 -6 18 15 -4 9 -38 12 -38 4z"/> <path d="M7610 7982 c0 -2 12 -13 26 -24 14 -11 23 -26 20 -33 -5 -15 17 -38 27 -28 4 3 12 1 20 -5 10 -9 12 -3 12 26 -1 35 -3 37 -33 35 -25 -1 -32 2 -30 14 2 10 -5 17 -19 18 -13 1 -23 0 -23 -3z"/> <path d="M7722 7963 c26 -28 25 -28 23 -1 -1 14 -9 22 -23 23 l-22 2 22 -24z"/> <path d="M7610 7893 c0 -2 9 -12 20 -23 25 -25 27 -25 25 2 -1 14 -9 22 -23 23 -12 1 -22 0 -22 -2z"/> <path d="M7798 7856 c34 -35 39 -47 38 -81 -2 -42 10 -69 26 -59 5 3 14 1 21 -4 9 -8 12 5 11 56 l0 67 -32 -2 c-26 -1 -32 2 -30 15 2 12 -3 16 -15 14 -12 -2 -17 2 -15 14 2 12 -4 18 -20 19 -21 2 -19 -2 16 -39z"/> <path d="M7970 7891 c0 -3 11 -13 24 -23 22 -16 22 -15 21 5 -1 13 -9 21 -23 22 -12 1 -22 -1 -22 -4z"/> <path d="M7710 7855 c4 -5 7 -21 6 -35 -3 -30 11 -51 29 -44 7 3 22 -6 33 -20 24 -32 29 -32 27 -3 -1 14 -8 21 -17 19 -13 -2 -15 7 -14 45 l1 47 -37 1 c-24 0 -34 -3 -28 -10z"/> <path d="M7670 7773 c0 -2 9 -12 20 -23 25 -25 27 -25 25 2 -1 14 -9 22 -23 23 -12 1 -22 0 -22 -2z"/> <path d="M7910 7724 c0 -8 5 -12 10 -9 6 4 18 1 27 -7 15 -12 15 -11 2 10 -16 25 -39 29 -39 6z"/> <path d="M7791 7711 c0 -3 18 -20 38 -38 35 -30 37 -31 36 -10 -1 15 -8 21 -19 19 -12 -2 -16 2 -14 14 2 11 -4 18 -19 19 -13 1 -23 -1 -22 -4z"/> <path d="M7730 7682 c0 -2 11 -13 24 -23 17 -14 24 -28 22 -47 -3 -32 10 -53 29 -46 7 3 22 -6 33 -20 23 -30 34 -33 26 -8 -5 16 -5 16 9 0 19 -24 24 -23 22 5 -1 18 -7 22 -32 20 -30 -1 -31 -1 -29 45 l1 47 -33 -2 c-25 -1 -32 2 -30 14 2 10 -5 17 -19 18 -13 1 -23 0 -23 -3z"/> <path d="M7889 7675 c5 -5 8 -28 7 -50 -2 -44 9 -66 29 -59 7 3 22 -6 33 -20 25 -32 30 -33 27 -1 -2 14 1 25 6 25 5 0 9 -4 9 -10 0 -5 4 -10 8 -10 5 0 8 10 7 23 -1 12 -5 21 -8 20 -4 -2 -14 -3 -22 -3 -8 0 -15 -7 -15 -15 0 -8 -4 -15 -9 -15 -4 0 -8 28 -7 62 l1 62 -37 1 c-24 0 -34 -3 -29 -10z"/> <path d="M7970 7675 c0 -8 7 -15 16 -15 14 0 14 3 4 15 -7 8 -14 15 -16 15 -2 0 -4 -7 -4 -15z"/> <path d="M7730 7563 c0 -2 9 -12 20 -23 25 -25 27 -25 25 2 -1 14 -9 22 -23 23 -12 1 -22 0 -22 -2z"/> <path d="M7850 7502 c0 -2 12 -13 26 -24 14 -11 23 -26 20 -33 -7 -18 14 -32 44 -29 17 1 38 -10 66 -37 37 -36 41 -38 39 -17 -1 16 -7 22 -19 20 -12 -2 -16 3 -14 15 2 12 -2 17 -14 15 -13 -2 -16 5 -15 30 l2 33 -48 -1 c-38 -1 -47 1 -45 14 2 9 -5 16 -19 17 -13 1 -23 0 -23 -3z"/> <path d="M6697 7446 c-3 -8 0 -19 7 -26 10 -8 15 -7 19 4 3 8 0 19 -7 26 -10 8 -15 7 -19 -4z"/> <path d="M7850 7413 c0 -2 9 -12 20 -23 25 -25 27 -25 25 2 -1 14 -9 22 -23 23 -12 1 -22 0 -22 -2z"/> <path d="M8232 7411 c-10 -6 -10 -10 0 -19 8 -6 19 -7 26 -3 10 6 10 10 0 19 -8 6 -19 7 -26 3z"/> <path d="M6822 7363 c26 -28 25 -28 23 -1 -1 14 -9 22 -23 23 l-22 2 22 -24z"/> <path d="M7910 7382 c0 -2 12 -13 26 -24 14 -11 23 -26 20 -33 -2 -7 0 -17 6 -23 6 -6 16 -8 23 -6 7 3 22 -6 33 -20 24 -32 29 -32 27 -3 -1 14 -8 21 -18 19 -12 -2 -15 5 -14 30 2 31 0 33 -31 31 -25 -1 -32 2 -30 14 2 10 -5 17 -19 18 -13 1 -23 0 -23 -3z"/> <path d="M6890 7352 c0 -2 11 -13 24 -23 19 -15 23 -27 22 -61 -2 -47 8 -70 29 -62 7 3 22 -6 33 -20 24 -32 29 -32 27 -3 -1 14 -8 21 -19 19 -10 -2 -16 4 -16 17 0 11 8 21 17 23 24 4 25 48 1 48 -11 0 -18 7 -18 19 0 15 -6 18 -30 15 -24 -3 -30 0 -28 13 2 10 -5 17 -19 18 -13 1 -23 0 -23 -3z"/> <path d="M7017 7318 c20 -21 38 -38 38 -38 1 0 1 10 0 23 -1 15 -8 21 -19 19 -12 -2 -16 2 -14 14 2 12 -4 18 -20 19 -21 2 -20 -2 15 -37z"/> <path d="M8678 7333 c-10 -3 -18 -9 -18 -14 0 -15 30 -23 43 -10 14 14 -2 29 -25 24z"/> <path d="M8053 7323 c-10 -3 -10 -9 0 -24 15 -24 24 -24 22 1 -2 24 -6 29 -22 23z"/> <path d="M8226 7322 c-3 -5 3 -17 13 -26 17 -16 18 -15 17 5 -1 23 -20 37 -30 21z"/> <path d="M7910 7292 c0 -3 8 -11 18 -19 16 -14 16 -14 -3 -8 -17 5 -17 3 4 -19 14 -15 25 -26 26 -26 0 0 0 17 0 37 -1 30 -5 37 -23 38 -12 1 -22 0 -22 -3z"/> <path d="M8100 7285 c4 -5 7 -28 6 -50 -2 -44 9 -66 29 -59 7 3 22 -6 33 -20 24 -32 29 -32 27 -3 -1 13 -8 21 -17 19 -11 -2 -15 10 -15 53 0 30 2 55 3 55 1 0 14 -4 28 -10 24 -9 31 -4 24 17 -2 4 -31 7 -65 7 -39 1 -59 -3 -53 -9z"/> <path d="M6792 7243 c26 -28 25 -28 23 -1 -1 14 -9 22 -23 23 l-22 2 22 -24z"/> <path d="M7670 7262 c0 -2 12 -13 26 -24 14 -11 23 -26 20 -33 -9 -24 17 -31 107 -30 81 2 89 0 106 -22 23 -29 28 -29 26 0 -1 14 -8 21 -18 19 -12 -2 -15 5 -14 30 l2 32 -108 0 c-90 -1 -107 2 -105 14 2 9 -6 16 -19 17 -13 1 -23 0 -23 -3z"/> <path d="M8262 7243 c26 -28 25 -28 23 -1 -1 14 -9 22 -23 23 l-22 2 22 -24z"/> <path d="M7033 7233 c-10 -3 -10 -9 0 -24 15 -24 24 -24 22 1 -2 24 -6 29 -22 23z"/> <path d="M8203 7231 c-20 -15 -1 -63 21 -55 8 3 23 -6 34 -20 24 -32 29 -32 27 -3 -1 14 -8 21 -18 19 -12 -2 -15 5 -14 29 2 27 -2 33 -20 34 -12 1 -26 -1 -30 -4z"/> <path d="M8330 7234 c0 -2 16 -19 35 -39 20 -19 37 -35 39 -35 1 0 2 10 1 23 -1 15 -8 21 -19 19 -12 -2 -16 2 -14 14 2 11 -4 18 -19 19 -13 1 -23 0 -23 -1z"/> <path d="M6819 7200 c-13 -9 7 -24 31 -25 8 0 19 -10 25 -22 5 -13 15 -23 21 -23 6 0 10 10 9 23 -1 15 -8 21 -19 19 -12 -2 -16 2 -14 14 3 18 -31 27 -53 14z"/> <path d="M6906 7189 c9 -10 21 -16 26 -13 13 8 40 -17 34 -32 -2 -7 3 -19 12 -28 16 -14 17 -12 17 22 -1 28 -6 37 -19 37 -9 0 -20 6 -25 13 -4 7 -20 15 -35 16 -25 3 -26 2 -10 -15z"/> <path d="M7670 7173 c0 -2 9 -12 20 -23 25 -25 27 -25 25 2 -1 14 -9 22 -23 23 -12 1 -22 0 -22 -2z"/> <path d="M8060 7173 c0 -2 9 -12 20 -23 25 -25 27 -25 25 2 -1 14 -9 22 -23 23 -12 1 -22 0 -22 -2z"/> <path d="M8540 7168 c0 -4 9 -8 20 -8 11 0 20 4 20 9 0 6 -9 9 -20 8 -11 -1 -20 -5 -20 -9z"/> <path d="M6920 7106 c0 -6 10 -16 23 -21 12 -6 22 -18 22 -27 0 -10 8 -25 16 -34 15 -15 16 -13 13 17 -4 32 -4 32 16 14 12 -10 19 -24 16 -31 -7 -18 15 -31 46 -28 19 2 33 -5 47 -22 23 -30 28 -30 26 -1 -1 14 -8 21 -17 19 -13 -2 -15 7 -14 44 1 43 -1 47 -23 49 -16 1 -25 -4 -29 -17 -6 -24 -44 -25 -40 0 2 13 -4 17 -30 15 -25 -1 -32 2 -30 14 2 10 -5 17 -19 18 -13 1 -23 -3 -23 -9z"/> <path d="M7010 7111 c0 -4 9 -12 20 -19 18 -11 25 -6 18 15 -4 9 -38 12 -38 4z"/> <path d="M7122 7093 c26 -28 25 -28 23 -1 -1 14 -9 22 -23 23 l-22 2 22 -24z"/> <path d="M8420 7053 c0 -2 9 -12 20 -23 25 -25 27 -25 25 2 -1 14 -9 22 -23 23 -12 1 -22 0 -22 -2z"/> <path d="M9037 7027 c-3 -8 2 -22 12 -31 16 -15 18 -15 16 4 -2 28 -21 46 -28 27z"/> <path d="M8570 7022 c0 -2 12 -13 26 -24 14 -11 23 -26 20 -33 -2 -7 0 -17 6 -23 6 -6 16 -8 23 -6 7 3 22 -6 33 -20 19 -25 40 -37 27 -16 -3 6 -1 10 4 10 6 0 11 -4 11 -10 0 -5 4 -10 8 -10 5 0 8 10 7 23 -1 18 -7 22 -33 20 -28 -1 -30 1 -29 30 2 30 0 32 -31 30 -25 -1 -32 2 -30 14 2 10 -5 17 -19 18 -13 1 -23 0 -23 -3z"/> <path d="M8677 7008 c9 -10 20 -15 25 -12 13 8 40 -17 34 -32 -2 -7 3 -19 12 -28 16 -14 17 -12 16 22 0 29 -4 36 -18 34 -12 -2 -16 2 -14 14 2 14 -5 18 -34 18 -35 1 -36 0 -21 -16z"/> <path d="M8090 6992 c0 -2 11 -13 24 -23 17 -14 24 -28 22 -47 -3 -32 10 -53 29 -46 7 3 22 -6 33 -20 24 -32 29 -32 27 -3 -1 14 -8 21 -19 19 -23 -4 -21 34 2 40 13 4 18 13 17 29 -2 22 -6 24 -49 23 -37 -1 -46 1 -44 14 2 9 -5 16 -19 17 -13 1 -23 0 -23 -3z"/> <path d="M8232 6973 c26 -28 25 -28 23 -1 -1 14 -9 22 -23 23 l-22 2 22 -24z"/> <path d="M8810 6993 c0 -2 19 -21 42 -43 23 -21 39 -42 35 -46 -14 -15 14 -33 37 -24 21 8 23 5 24 -30 l2 -39 -50 2 c-38 1 -49 4 -47 15 1 9 -7 16 -20 17 -29 2 -29 -3 3 -27 14 -11 23 -26 20 -33 -8 -21 15 -31 62 -29 34 1 46 -3 61 -22 23 -30 28 -30 26 -1 -1 14 -8 21 -19 19 -10 -2 -16 4 -16 18 0 14 7 20 23 20 13 0 28 -5 34 -11 7 -7 9 -3 6 14 -4 18 0 26 13 29 24 4 27 48 2 48 -11 0 -18 7 -18 18 0 16 -7 18 -46 15 -39 -4 -45 -2 -42 14 2 15 -3 18 -30 16 -25 -1 -32 2 -30 15 2 12 -3 16 -15 14 -12 -2 -17 2 -15 14 2 11 -4 18 -19 19 -13 1 -23 0 -23 -2z"/> <path d="M9372 6990 c-9 -6 -8 -32 0 -45 4 -6 34 -10 67 -9 49 1 63 -2 78 -19 17 -20 17 -20 -2 -13 -17 6 -17 4 4 -18 29 -31 33 -32 24 -8 -6 15 -4 15 16 -2 12 -11 20 -25 17 -32 -6 -15 13 -34 29 -28 7 3 22 -6 33 -20 24 -32 29 -32 27 -3 -1 14 -8 21 -18 19 -12 -2 -15 5 -14 30 2 31 0 33 -31 31 -25 -1 -32 2 -30 15 2 12 -3 16 -15 14 -13 -2 -17 2 -15 15 2 12 -2 17 -14 15 -13 -2 -16 4 -15 30 l2 32 -68 0 c-38 1 -72 -1 -75 -4z"/> <path d="M9542 6983 c6 -8 8 -16 5 -20 -10 -10 13 -32 27 -27 7 3 36 -20 65 -51 29 -30 53 -55 55 -55 1 0 2 10 1 23 -1 15 -8 21 -19 19 -12 -2 -16 3 -14 15 2 13 -2 17 -15 15 -13 -2 -17 2 -15 15 2 12 -2 17 -14 15 -13 -2 -16 4 -15 30 2 30 0 32 -35 33 -29 0 -35 -2 -26 -12z"/> <path d="M9072 6960 c-14 -10 -7 -45 9 -48 10 -2 19 -12 22 -23 3 -12 11 -17 20 -13 9 3 23 -5 35 -20 24 -32 29 -32 27 -3 -1 14 -8 21 -18 19 -13 -2 -16 4 -13 28 3 24 0 30 -15 30 -12 0 -19 7 -19 18 0 17 -31 25 -48 12z"/> <path d="M9166 6939 c14 -15 23 -32 20 -37 -11 -18 19 -28 77 -26 50 1 60 -2 76 -22 23 -30 28 -30 26 -1 -1 14 -8 21 -18 19 -12 -2 -15 5 -14 30 l2 33 -78 -1 c-63 -1 -77 2 -75 14 2 9 -6 16 -20 17 -22 2 -22 2 4 -26z"/> <path d="M7092 6913 c26 -28 25 -28 23 -1 -1 14 -9 22 -23 23 l-22 2 22 -24z"/> <path d="M8570 6933 c0 -2 9 -12 20 -23 25 -25 27 -25 25 2 -1 14 -9 22 -23 23 -12 1 -22 0 -22 -2z"/> <path d="M7147 6888 c9 -10 20 -15 25 -12 13 8 40 -17 34 -32 -2 -7 3 -19 12 -28 16 -14 17 -12 16 22 0 29 -4 36 -18 34 -12 -2 -16 2 -14 14 2 14 -5 18 -34 18 -35 1 -36 0 -21 -16z"/> <path d="M8233 6903 c-10 -3 -10 -9 0 -24 15 -24 24 -24 22 1 -2 24 -6 29 -22 23z"/> <path d="M9372 6901 c-9 -5 -7 -12 8 -26 11 -10 19 -24 16 -31 -7 -19 15 -30 59 -28 28 1 47 -5 63 -19 14 -13 22 -16 22 -8 0 11 3 11 15 1 10 -9 15 -9 15 -1 0 22 -5 26 -32 24 -24 -1 -26 2 -25 30 l2 32 -63 -1 c-49 -1 -62 2 -58 12 6 17 -6 25 -22 15z"/> <path d="M7125 6872 c-12 -8 -13 -32 -2 -50 12 -19 26 -5 23 23 -3 30 -8 36 -21 27z"/> <path d="M8090 6873 c0 -2 9 -12 20 -23 25 -25 27 -25 25 2 -1 14 -9 22 -23 23 -12 1 -22 0 -22 -2z"/> <path d="M8840 6871 c0 -4 9 -12 20 -19 18 -11 25 -6 18 15 -4 9 -38 12 -38 4z"/> <path d="M7093 6813 c-9 -3 -10 -10 -3 -24 14 -25 27 -24 25 1 -2 24 -6 29 -22 23z"/> <path d="M9072 6811 c-10 -6 -10 -10 1 -20 12 -9 16 -8 20 3 7 19 -4 27 -21 17z"/> <path d="M9350 6811 c0 -4 9 -12 20 -19 18 -11 25 -6 18 15 -4 9 -38 12 -38 4z"/> <path d="M9740 6813 c0 -3 18 -21 40 -41 23 -20 39 -41 36 -48 -7 -18 15 -31 46 -28 19 2 33 -5 47 -22 23 -30 28 -30 26 -1 -1 14 -8 21 -18 19 -12 -2 -15 5 -14 30 l2 33 -48 -1 c-39 -2 -47 1 -45 15 2 11 -3 15 -15 13 -12 -2 -17 2 -15 14 2 11 -4 18 -19 19 -13 1 -23 0 -23 -2z"/> <path d="M9132 6763 c26 -28 25 -28 23 -1 -1 14 -9 22 -23 23 l-22 2 22 -24z"/> <path d="M9320 6782 c0 -2 12 -13 26 -24 14 -11 23 -26 20 -33 -7 -19 14 -32 46 -29 19 2 33 -5 47 -22 22 -28 33 -31 25 -6 -5 16 -5 16 9 0 19 -24 24 -23 22 5 -1 18 -7 22 -33 20 -28 -1 -30 1 -29 30 2 32 2 32 -46 31 -38 -1 -47 1 -45 14 2 9 -5 16 -19 17 -13 1 -23 0 -23 -3z"/> <path d="M9462 6763 c26 -28 29 -28 21 -5 -6 15 -4 15 16 -2 12 -11 20 -25 17 -32 -7 -18 15 -31 46 -28 19 2 33 -5 47 -22 23 -30 28 -30 26 -1 -1 14 -8 21 -18 19 -12 -2 -15 5 -14 30 l2 33 -48 -1 c-38 -2 -47 1 -45 14 2 11 -6 16 -34 16 l-37 2 21 -23z"/> <path d="M9612 6763 c26 -28 25 -28 23 -1 -1 14 -9 22 -23 23 l-22 2 22 -24z"/> <path d="M9912 6763 c26 -28 25 -28 23 -1 -1 14 -9 22 -23 23 l-22 2 22 -24z"/> <path d="M8060 6752 c0 -2 12 -13 26 -24 14 -11 23 -26 20 -33 -2 -7 0 -17 6 -23 6 -6 16 -8 23 -6 7 3 22 -6 33 -20 24 -32 29 -32 27 -3 -1 14 -8 21 -18 19 -12 -2 -15 5 -14 30 2 31 0 33 -31 31 -25 -1 -32 2 -30 14 2 10 -5 17 -19 18 -13 1 -23 0 -23 -3z"/> <path d="M8172 6733 c26 -28 25 -28 23 -1 -1 14 -9 22 -23 23 l-22 2 22 -24z"/> <path d="M8810 6753 c0 -2 9 -12 20 -23 25 -25 27 -25 25 2 -1 14 -9 22 -23 23 -12 1 -22 0 -22 -2z"/> <path d="M9032 6742 c6 -7 8 -15 5 -19 -13 -13 14 -30 43 -27 21 3 34 -3 48 -21 24 -31 29 -31 27 -2 -1 14 -8 21 -18 19 -12 -2 -15 5 -14 30 l2 32 -52 0 c-41 1 -49 -2 -41 -12z"/> <path d="M9950 6723 c0 -2 9 -12 20 -23 25 -25 27 -25 25 2 -1 14 -9 22 -23 23 -12 1 -22 0 -22 -2z"/> <path d="M10100 6723 c0 -2 9 -12 20 -23 25 -25 27 -25 25 2 -1 14 -9 22 -23 23 -12 1 -22 0 -22 -2z"/> <path d="M8990 6693 c0 -2 9 -12 20 -23 25 -25 27 -25 25 2 -1 14 -9 22 -23 23 -12 1 -22 0 -22 -2z"/> <path d="M9320 6693 c0 -2 9 -12 20 -23 25 -25 27 -25 25 2 -1 14 -9 22 -23 23 -12 1 -22 0 -22 -2z"/> <path d="M9770 6693 c0 -2 9 -12 20 -23 25 -25 27 -25 25 2 -1 14 -9 22 -23 23 -12 1 -22 0 -22 -2z"/> <path d="M8060 6663 c0 -2 9 -12 20 -23 25 -25 27 -25 25 2 -1 14 -9 22 -23 23 -12 1 -22 0 -22 -2z"/> <path d="M10550 6661 c0 -4 9 -12 20 -19 18 -11 25 -6 18 15 -4 9 -38 12 -38 4z"/> <path d="M10599 6638 c-1 -7 -1 -18 0 -25 1 -6 -9 -10 -24 -9 -14 2 -25 -1 -25 -5 0 -5 5 -9 10 -9 6 0 10 -5 10 -11 0 -5 -4 -7 -10 -4 -24 15 -5 -13 29 -42 36 -31 38 -32 37 -10 -1 14 -7 22 -18 21 -23 -2 -19 41 5 58 11 9 16 20 11 31 -7 20 -23 23 -25 5z"/> <path d="M7722 6613 c26 -28 25 -28 23 -1 -1 14 -9 22 -23 23 l-22 2 22 -24z"/> <path d="M7902 6433 c26 -28 25 -28 23 -1 -1 14 -9 22 -23 23 l-22 2 22 -24z"/> <path d="M8060 6423 c0 -2 12 -15 28 -28 21 -18 24 -26 15 -36 -10 -10 -16 -9 -29 2 -15 12 -14 9 2 -15 15 -24 20 -26 22 -13 5 24 69 24 74 0 3 -16 5 -15 16 3 10 19 9 21 -6 20 -11 -1 -17 6 -17 19 0 16 -6 20 -33 18 -25 -1 -32 2 -30 14 2 10 -5 17 -19 18 -13 1 -23 0 -23 -2z"/> <path d="M8172 6403 c26 -28 25 -28 23 -1 -1 14 -9 22 -23 23 l-22 2 22 -24z"/> <path d="M7957 6378 c10 -11 19 -15 21 -9 5 16 -1 25 -21 26 -16 2 -16 1 0 -17z"/> <path d="M10272 6373 c26 -28 25 -28 23 -1 -1 14 -9 22 -23 23 l-22 2 22 -24z"/> <path d="M8652 6313 c26 -28 25 -28 23 -1 -1 14 -9 22 -23 23 l-22 2 22 -24z"/> <path d="M10176 6289 c9 -10 21 -16 26 -13 15 10 3 27 -20 29 -21 2 -21 1 -6 -16z"/> <path d="M8720 6272 c0 -2 12 -13 26 -24 14 -11 23 -26 20 -33 -5 -15 17 -38 27 -28 4 3 18 -4 32 -17 14 -13 25 -18 25 -12 0 20 -5 27 -17 24 -7 -2 -11 9 -10 30 2 31 0 33 -31 31 -25 -1 -32 2 -30 14 2 10 -5 17 -19 18 -13 1 -23 0 -23 -3z"/> <path d="M8832 6253 c26 -28 25 -28 23 -1 -1 14 -9 22 -23 23 l-22 2 22 -24z"/> <path d="M9937 6228 c10 -11 19 -15 21 -9 5 16 -1 25 -21 26 -16 2 -16 1 0 -17z"/> <path d="M9170 6212 c0 -2 12 -13 26 -24 14 -11 23 -26 20 -33 -8 -21 15 -31 62 -29 34 1 46 -3 61 -22 23 -30 28 -30 26 -1 -1 14 -8 21 -18 19 -12 -2 -15 5 -14 30 l2 33 -63 -1 c-50 -1 -62 2 -60 14 2 9 -5 16 -19 17 -13 1 -23 0 -23 -3z"/> <path d="M9342 6193 c26 -28 25 -28 23 -1 -1 14 -9 22 -23 23 l-22 2 22 -24z"/> <path d="M9770 6212 c0 -2 12 -13 26 -24 14 -11 23 -26 20 -33 -6 -17 13 -35 30 -28 9 3 14 -2 14 -14 0 -12 7 -19 20 -19 19 0 23 6 18 23 -2 4 -10 8 -18 8 -9 0 -16 11 -18 28 -3 26 -11 31 -40 28 -7 -1 -12 5 -10 15 2 11 -4 18 -19 19 -13 1 -23 0 -23 -3z"/> <path d="M10002 6193 c26 -28 25 -28 23 -1 -1 14 -9 22 -23 23 l-22 2 22 -24z"/> <path d="M8720 6182 c0 -3 8 -11 18 -19 16 -14 16 -14 0 -9 -25 8 -22 -3 8 -26 14 -11 23 -26 20 -33 -7 -20 15 -31 59 -29 28 1 47 -5 63 -19 12 -11 22 -15 22 -9 0 21 -4 27 -17 24 -7 -2 -11 9 -10 30 l2 33 -62 -1 -61 -1 1 30 c2 25 -2 31 -20 32 -13 1 -23 0 -23 -3z"/> <path d="M9050 6182 c0 -2 11 -13 25 -24 18 -14 24 -27 21 -48 -4 -35 9 -47 46 -44 19 2 33 -5 47 -22 23 -30 28 -30 26 -1 -1 14 -8 21 -18 19 -13 -2 -16 4 -13 28 3 24 0 30 -15 30 -12 0 -19 7 -19 19 0 15 -6 18 -30 15 -24 -3 -30 0 -28 13 2 10 -5 17 -19 18 -13 1 -23 0 -23 -3z"/> <path d="M9162 6163 c26 -28 25 -28 23 -1 -1 14 -9 22 -23 23 l-22 2 22 -24z"/> <path d="M8623 6153 c-10 -3 -10 -9 0 -24 15 -24 24 -24 22 1 -2 24 -6 29 -22 23z"/> <path d="M8892 6133 c26 -28 25 -28 23 -1 -1 14 -9 22 -23 23 l-22 2 22 -24z"/> <path d="M9577 6138 c9 -10 20 -15 25 -12 13 8 40 -17 34 -32 -2 -7 3 -19 12 -28 16 -14 17 -12 16 22 0 29 -4 36 -18 34 -12 -2 -16 2 -14 14 2 14 -5 18 -34 18 -35 1 -36 0 -21 -16z"/> <path d="M9530 6118 c0 -4 5 -8 10 -8 6 0 10 -5 10 -11 0 -5 -4 -7 -10 -4 -5 3 -10 3 -10 0 0 -11 64 -60 73 -57 6 2 22 -9 37 -23 l27 -26 -2 23 c-1 16 -7 22 -19 20 -12 -2 -16 3 -14 15 2 14 -3 18 -29 16 -29 -1 -31 1 -30 29 2 26 -2 32 -20 33 -13 1 -23 -2 -23 -7z"/> <path d="M9784 6112 c20 -20 56 -23 49 -5 -3 7 -8 13 -12 14 -51 6 -52 6 -37 -9z"/> <path d="M9740 6093 c0 -3 8 -12 17 -21 12 -12 18 -13 20 -5 3 7 3 16 1 20 -3 7 -38 13 -38 6z"/> <path d="M9050 6063 c0 -2 9 -12 20 -23 25 -25 27 -25 25 2 -1 14 -9 22 -23 23 -12 1 -22 0 -22 -2z"/> <path d="M8840 6032 c0 -2 12 -13 26 -24 14 -11 23 -26 20 -34 -6 -17 13 -29 40 -26 15 2 23 -4 27 -18 3 -13 10 -19 17 -15 6 4 22 -3 36 -16 13 -12 24 -17 24 -11 0 21 -4 27 -17 24 -9 -2 -12 7 -9 28 3 24 0 30 -15 30 -12 0 -19 7 -19 18 0 15 -7 18 -45 16 -37 -2 -45 1 -43 13 2 10 -5 17 -19 18 -13 1 -23 0 -23 -3z"/> <path d="M8997 5998 c20 -21 38 -38 38 -38 1 0 1 10 0 23 -1 15 -8 21 -19 19 -12 -2 -16 2 -14 14 2 12 -4 18 -20 19 -21 2 -20 -2 15 -37z"/> <path d="M9247 5988 c10 -11 19 -15 21 -9 5 16 -1 25 -21 26 -16 2 -16 1 0 -17z"/> <path d="M9342 5953 c26 -28 25 -28 23 -1 -1 14 -9 22 -23 23 l-22 2 22 -24z"/> <path d="M9680 5971 c0 -3 11 -13 24 -23 22 -16 22 -15 21 5 -1 13 -9 21 -23 22 -12 1 -22 -1 -22 -4z"/> <path d="M8802 5941 c-10 -6 -10 -10 1 -20 12 -9 16 -8 20 3 7 19 -4 27 -21 17z"/> <path d="M8840 5941 c0 -4 9 -12 20 -19 18 -11 25 -6 18 15 -4 9 -38 12 -38 4z"/> <path d="M9530 5942 c0 -3 8 -11 18 -18 15 -12 13 -13 -16 -10 -31 3 -32 2 -18 -12 17 -17 55 -24 57 -10 6 41 2 51 -19 53 -12 1 -22 0 -22 -3z"/> <path d="M9603 5898 c13 -20 27 -24 27 -8 0 18 -5 24 -21 25 -14 1 -15 -2 -6 -17z"/> <path d="M9456 5869 c18 -20 59 -20 59 0 0 10 -12 15 -37 16 -34 0 -36 -1 -22 -16z"/> <path d="M11235 6880 c-3 -5 3 -10 15 -10 12 0 18 5 15 10 -3 6 -10 10 -15 10 -5 0 -12 -4 -15 -10z"/> <path d="M11152 6848 c3 -7 19 -14 37 -16 24 -3 32 0 29 10 -3 7 -19 14 -37 16 -24 3 -32 0 -29 -10z"/> <path d="M10870 6670 c0 -13 7 -20 20 -20 13 0 20 7 20 20 0 13 -7 20 -20 20 -13 0 -20 -7 -20 -20z"/> <path d="M8685 5901 c-6 -11 9 -23 19 -14 9 9 7 23 -3 23 -6 0 -12 -4 -16 -9z"/> </g> </svg> 